# Blender 4.1.1
# www.blender.org
mtllib EnemyBullet.mtl
o 円錐
v 0.000000 0.000000 0.500000
v -0.500000 0.000000 0.000000
v 0.000000 0.000000 -0.500000
v 0.500000 0.000000 0.000000
v 0.000000 0.500000 0.000000
v 0.000000 0.000000 0.500000
v 0.500000 0.000000 0.000000
v 0.000000 0.000000 -0.500000
v -0.500000 -0.000000 0.000000
v 0.000000 -0.500000 0.000000
vn -0.5774 0.5774 0.5774
vn -0.5774 0.5774 -0.5774
vn 0.5774 0.5774 -0.5774
vn 0.5774 0.5774 0.5774
vn 0.5774 -0.5774 0.5774
vn 0.5774 -0.5774 -0.5774
vn -0.5774 -0.5774 -0.5774
vn -0.5774 -0.5774 0.5774
vt 0.499900 0.499900
vt 0.250000 0.250000
vt 0.499900 0.000100
vt 0.000100 0.000100
vt 0.000100 0.499900
vt 0.999900 0.000100
vt 0.750000 0.250000
vt 0.500100 0.000100
vt 0.500100 0.499900
vt 0.999900 0.499900
s 0
usemtl マテリアル
f 1/1/1 5/2/1 2/3/1
f 2/3/2 5/2/2 3/4/2
f 3/4/3 5/2/3 4/5/3
f 4/5/4 5/2/4 1/1/4
f 6/6/5 10/7/5 7/8/5
f 7/8/6 10/7/6 8/9/6
f 8/9/7 10/7/7 9/10/7
f 9/10/8 10/7/8 6/6/8
