# Blender 4.1.1
# www.blender.org
mtllib cylinder.mtl
o 円柱
v 0.000000 0.500001 1.000000
v 0.000000 0.500000 -0.000000
v -0.097545 0.490393 1.000000
v -0.097545 0.490393 -0.000000
v -0.191342 0.461941 1.000000
v -0.191342 0.461940 -0.000000
v -0.277785 0.415736 1.000000
v -0.277785 0.415735 -0.000000
v -0.353554 0.353554 1.000000
v -0.353554 0.353554 -0.000000
v -0.415735 0.277786 1.000000
v -0.415735 0.277785 -0.000000
v -0.461940 0.191342 1.000000
v -0.461940 0.191342 -0.000000
v -0.490393 0.097546 1.000000
v -0.490393 0.097545 -0.000000
v -0.500000 0.000001 1.000000
v -0.500000 0.000000 0.000000
v -0.490393 -0.097544 1.000000
v -0.490393 -0.097545 0.000000
v -0.461940 -0.191341 1.000000
v -0.461940 -0.191342 0.000000
v -0.415735 -0.277784 1.000000
v -0.415735 -0.277785 0.000000
v -0.353554 -0.353553 1.000000
v -0.353554 -0.353554 0.000000
v -0.277785 -0.415734 1.000000
v -0.277785 -0.415735 0.000000
v -0.191342 -0.461939 1.000000
v -0.191342 -0.461940 0.000000
v -0.097545 -0.490392 1.000000
v -0.097545 -0.490393 0.000000
v 0.000000 -0.499999 1.000000
v 0.000000 -0.500000 0.000000
v 0.097545 -0.490392 1.000000
v 0.097545 -0.490393 0.000000
v 0.191342 -0.461939 1.000000
v 0.191342 -0.461940 0.000000
v 0.277785 -0.415734 1.000000
v 0.277785 -0.415735 0.000000
v 0.353554 -0.353553 1.000000
v 0.353554 -0.353554 0.000000
v 0.415735 -0.277784 1.000000
v 0.415735 -0.277785 0.000000
v 0.461940 -0.191341 1.000000
v 0.461940 -0.191342 0.000000
v 0.490393 -0.097544 1.000000
v 0.490393 -0.097545 0.000000
v 0.500000 0.000001 1.000000
v 0.500000 0.000000 0.000000
v 0.490393 0.097546 1.000000
v 0.490393 0.097545 -0.000000
v 0.461940 0.191342 1.000000
v 0.461940 0.191342 -0.000000
v 0.415735 0.277786 1.000000
v 0.415735 0.277785 -0.000000
v 0.353554 0.353554 1.000000
v 0.353554 0.353554 -0.000000
v 0.277785 0.415736 1.000000
v 0.277785 0.415735 -0.000000
v 0.191342 0.461941 1.000000
v 0.191342 0.461940 -0.000000
v 0.097545 0.490393 1.000000
v 0.097545 0.490393 -0.000000
vn 0.1951 -0.9808 -0.0000
vn -0.0000 -1.0000 -0.0000
vn 0.3827 -0.9239 -0.0000
vn 0.5556 -0.8315 -0.0000
vn 0.7071 -0.7071 -0.0000
vn 0.8315 -0.5556 -0.0000
vn 0.9239 -0.3827 -0.0000
vn 0.9808 -0.1951 -0.0000
vn 1.0000 -0.0000 -0.0000
vn 0.9808 0.1951 -0.0000
vn 0.9239 0.3827 -0.0000
vn 0.8315 0.5556 -0.0000
vn 0.7071 0.7071 -0.0000
vn 0.5556 0.8315 -0.0000
vn 0.3827 0.9239 -0.0000
vn 0.1951 0.9808 -0.0000
vn -0.0000 1.0000 -0.0000
vn -0.1951 0.9808 -0.0000
vn -0.3827 0.9239 -0.0000
vn -0.5556 0.8315 -0.0000
vn -0.7071 0.7071 -0.0000
vn -0.8315 0.5556 -0.0000
vn -0.9239 0.3827 -0.0000
vn -0.9808 0.1951 -0.0000
vn -1.0000 -0.0000 -0.0000
vn -0.9808 -0.1951 -0.0000
vn -0.9239 -0.3827 -0.0000
vn -0.8315 -0.5556 -0.0000
vn -0.7071 -0.7071 -0.0000
vn -0.5556 -0.8315 -0.0000
vn -0.3827 -0.9239 -0.0000
vn -0.1951 -0.9808 -0.0000
vt 0.000071 0.031316
vt 0.500000 0.000071
vt 0.000071 0.000071
vt 0.000071 0.062562
vt 0.500000 0.031316
vt 0.000071 0.093807
vt 0.500000 0.062562
vt 0.000071 0.125053
vt 0.500000 0.093807
vt 0.000071 0.156299
vt 0.500000 0.125053
vt 0.000071 0.187544
vt 0.500000 0.156299
vt 0.000071 0.218790
vt 0.500000 0.187544
vt 0.000071 0.250035
vt 0.500000 0.218790
vt 0.000071 0.281281
vt 0.500000 0.250035
vt 0.000071 0.312526
vt 0.500000 0.281281
vt 0.000071 0.343772
vt 0.500000 0.312526
vt 0.000071 0.375018
vt 0.500000 0.343772
vt 0.000071 0.406263
vt 0.500000 0.375018
vt 0.000071 0.437509
vt 0.500000 0.406263
vt 0.000071 0.468754
vt 0.500000 0.437509
vt 0.000071 0.500000
vt 0.500000 0.468754
vt 0.000071 0.531246
vt 0.500000 0.500000
vt 0.000071 0.562491
vt 0.500000 0.531246
vt 0.000071 0.593737
vt 0.500000 0.562491
vt 0.000071 0.624982
vt 0.500000 0.593737
vt 0.000071 0.656228
vt 0.500000 0.624982
vt 0.000071 0.687473
vt 0.500000 0.656228
vt 0.000071 0.718719
vt 0.500000 0.687473
vt 0.000071 0.749965
vt 0.500000 0.718719
vt 0.000071 0.781210
vt 0.500000 0.749965
vt 0.000071 0.812456
vt 0.500000 0.781210
vt 0.000071 0.843701
vt 0.500000 0.812456
vt 0.000071 0.874947
vt 0.500000 0.843701
vt 0.000071 0.906193
vt 0.500000 0.874947
vt 0.000071 0.937438
vt 0.500000 0.906193
vt 0.000071 0.968684
vt 0.500000 0.937438
vt 0.000071 0.999929
vt 0.500000 0.968684
vt 0.500000 0.999929
s 1
usemtl マテリアル.002
f 3/1/1 2/2/2 1/3/2
f 5/4/3 4/5/1 3/1/1
f 7/6/4 6/7/3 5/4/3
f 9/8/5 8/9/4 7/6/4
f 11/10/6 10/11/5 9/8/5
f 13/12/7 12/13/6 11/10/6
f 15/14/8 14/15/7 13/12/7
f 17/16/9 16/17/8 15/14/8
f 19/18/10 18/19/9 17/16/9
f 21/20/11 20/21/10 19/18/10
f 23/22/12 22/23/11 21/20/11
f 25/24/13 24/25/12 23/22/12
f 27/26/14 26/27/13 25/24/13
f 29/28/15 28/29/14 27/26/14
f 31/30/16 30/31/15 29/28/15
f 33/32/17 32/33/16 31/30/16
f 35/34/18 34/35/17 33/32/17
f 37/36/19 36/37/18 35/34/18
f 39/38/20 38/39/19 37/36/19
f 41/40/21 40/41/20 39/38/20
f 43/42/22 42/43/21 41/40/21
f 45/44/23 44/45/22 43/42/22
f 47/46/24 46/47/23 45/44/23
f 49/48/25 48/49/24 47/46/24
f 51/50/26 50/51/25 49/48/25
f 53/52/27 52/53/26 51/50/26
f 55/54/28 54/55/27 53/52/27
f 57/56/29 56/57/28 55/54/28
f 59/58/30 58/59/29 57/56/29
f 61/60/31 60/61/30 59/58/30
f 63/62/32 62/63/31 61/60/31
f 1/64/2 64/65/32 63/62/32
f 3/1/1 4/5/1 2/2/2
f 5/4/3 6/7/3 4/5/1
f 7/6/4 8/9/4 6/7/3
f 9/8/5 10/11/5 8/9/4
f 11/10/6 12/13/6 10/11/5
f 13/12/7 14/15/7 12/13/6
f 15/14/8 16/17/8 14/15/7
f 17/16/9 18/19/9 16/17/8
f 19/18/10 20/21/10 18/19/9
f 21/20/11 22/23/11 20/21/10
f 23/22/12 24/25/12 22/23/11
f 25/24/13 26/27/13 24/25/12
f 27/26/14 28/29/14 26/27/13
f 29/28/15 30/31/15 28/29/14
f 31/30/16 32/33/16 30/31/15
f 33/32/17 34/35/17 32/33/16
f 35/34/18 36/37/18 34/35/17
f 37/36/19 38/39/19 36/37/18
f 39/38/20 40/41/20 38/39/19
f 41/40/21 42/43/21 40/41/20
f 43/42/22 44/45/22 42/43/21
f 45/44/23 46/47/23 44/45/22
f 47/46/24 48/49/24 46/47/23
f 49/48/25 50/51/25 48/49/24
f 51/50/26 52/53/26 50/51/25
f 53/52/27 54/55/27 52/53/26
f 55/54/28 56/57/28 54/55/27
f 57/56/29 58/59/29 56/57/28
f 59/58/30 60/61/30 58/59/29
f 61/60/31 62/63/31 60/61/30
f 63/62/32 64/65/32 62/63/31
f 1/64/2 2/66/2 64/65/32
