# Blender 4.1.1
# www.blender.org
mtllib Ring.mtl
o トーラス.001
v -0.500000 0.000000 0.000000
v -0.486603 -0.000000 -0.050000
v -0.450000 -0.000000 -0.086603
v -0.400000 -0.000000 -0.100000
v -0.350000 -0.000000 -0.086603
v -0.313397 -0.000000 -0.050000
v -0.300000 -0.000000 -0.000000
v -0.313397 0.000000 0.050000
v -0.350000 0.000000 0.086603
v -0.400000 0.000000 0.100000
v -0.450000 0.000000 0.086603
v -0.486603 0.000000 0.050000
v -0.495722 0.065263 -0.000000
v -0.482440 0.063514 -0.050000
v -0.446150 0.058737 -0.086603
v -0.396578 0.052210 -0.100000
v -0.347006 0.045684 -0.086603
v -0.310716 0.040907 -0.050000
v -0.297433 0.039158 -0.000000
v -0.310716 0.040907 0.050000
v -0.347006 0.045684 0.086603
v -0.396578 0.052210 0.100000
v -0.446150 0.058737 0.086603
v -0.482440 0.063514 0.050000
v -0.482963 0.129409 -0.000000
v -0.470022 0.125942 -0.050000
v -0.434667 0.116469 -0.086603
v -0.386370 0.103528 -0.100000
v -0.338074 0.090587 -0.086603
v -0.302719 0.081113 -0.050000
v -0.289778 0.077646 -0.000000
v -0.302719 0.081113 0.050000
v -0.338074 0.090587 0.086603
v -0.386370 0.103528 0.100000
v -0.434667 0.116469 0.086603
v -0.470022 0.125942 0.050000
v -0.461940 0.191342 -0.000000
v -0.449562 0.186215 -0.050000
v -0.415746 0.172208 -0.086603
v -0.369552 0.153073 -0.100000
v -0.323358 0.133939 -0.086603
v -0.289542 0.119932 -0.050000
v -0.277164 0.114805 -0.000000
v -0.289542 0.119932 0.050000
v -0.323358 0.133939 0.086603
v -0.369552 0.153073 0.100000
v -0.415746 0.172208 0.086603
v -0.449562 0.186215 0.050000
v -0.433013 0.250000 -0.000000
v -0.421410 0.243301 -0.050000
v -0.389711 0.225000 -0.086603
v -0.346410 0.200000 -0.100000
v -0.303109 0.175000 -0.086603
v -0.271410 0.156699 -0.050000
v -0.259808 0.150000 -0.000000
v -0.271410 0.156699 0.050000
v -0.303109 0.175000 0.086603
v -0.346410 0.200000 0.100000
v -0.389711 0.225000 0.086603
v -0.421410 0.243301 0.050000
v -0.396677 0.304381 -0.000000
v -0.386048 0.296225 -0.050000
v -0.357009 0.273943 -0.086603
v -0.317341 0.243505 -0.100000
v -0.277674 0.213066 -0.086603
v -0.248635 0.190784 -0.050000
v -0.238006 0.182628 -0.000000
v -0.248635 0.190784 0.050000
v -0.277674 0.213066 0.086603
v -0.317341 0.243505 0.100000
v -0.357009 0.273943 0.086603
v -0.386048 0.296225 0.050000
v -0.353553 0.353553 -0.000000
v -0.344080 0.344080 -0.050000
v -0.318198 0.318198 -0.086603
v -0.282843 0.282843 -0.100000
v -0.247487 0.247487 -0.086603
v -0.221605 0.221605 -0.050000
v -0.212132 0.212132 -0.000000
v -0.221605 0.221605 0.050000
v -0.247487 0.247487 0.086603
v -0.282843 0.282843 0.100000
v -0.318198 0.318198 0.086603
v -0.344080 0.344080 0.050000
v -0.304381 0.396677 -0.000000
v -0.296225 0.386048 -0.050000
v -0.273943 0.357009 -0.086603
v -0.243505 0.317341 -0.100000
v -0.213067 0.277674 -0.086603
v -0.190784 0.248635 -0.050000
v -0.182628 0.238006 -0.000000
v -0.190784 0.248635 0.050000
v -0.213067 0.277674 0.086603
v -0.243505 0.317341 0.100000
v -0.273943 0.357009 0.086603
v -0.296225 0.386048 0.050000
v -0.250000 0.433013 -0.000000
v -0.243301 0.421410 -0.050000
v -0.225000 0.389711 -0.086603
v -0.200000 0.346410 -0.100000
v -0.175000 0.303109 -0.086603
v -0.156699 0.271410 -0.050000
v -0.150000 0.259808 -0.000000
v -0.156699 0.271410 0.050000
v -0.175000 0.303109 0.086603
v -0.200000 0.346410 0.100000
v -0.225000 0.389711 0.086603
v -0.243301 0.421410 0.050000
v -0.191342 0.461940 -0.000000
v -0.186215 0.449562 -0.050000
v -0.172208 0.415746 -0.086603
v -0.153073 0.369552 -0.100000
v -0.133939 0.323358 -0.086603
v -0.119932 0.289541 -0.050000
v -0.114805 0.277164 -0.000000
v -0.119932 0.289541 0.050000
v -0.133939 0.323358 0.086603
v -0.153073 0.369552 0.100000
v -0.172208 0.415746 0.086603
v -0.186215 0.449562 0.050000
v -0.129410 0.482963 -0.000000
v -0.125942 0.470022 -0.050000
v -0.116469 0.434667 -0.086603
v -0.103528 0.386370 -0.100000
v -0.090587 0.338074 -0.086603
v -0.081113 0.302719 -0.050000
v -0.077646 0.289778 -0.000000
v -0.081113 0.302719 0.050000
v -0.090587 0.338074 0.086603
v -0.103528 0.386370 0.100000
v -0.116469 0.434667 0.086603
v -0.125942 0.470022 0.050000
v -0.065263 0.495722 -0.000000
v -0.063514 0.482440 -0.050000
v -0.058737 0.446150 -0.086603
v -0.052210 0.396578 -0.100000
v -0.045684 0.347006 -0.086603
v -0.040907 0.310716 -0.050000
v -0.039158 0.297433 -0.000000
v -0.040907 0.310716 0.050000
v -0.045684 0.347006 0.086603
v -0.052210 0.396578 0.100000
v -0.058737 0.446150 0.086603
v -0.063514 0.482440 0.050000
v -0.000000 0.500000 -0.000000
v -0.000000 0.486603 -0.050000
v -0.000000 0.450000 -0.086603
v -0.000000 0.400000 -0.100000
v -0.000000 0.350000 -0.086603
v -0.000000 0.313397 -0.050000
v -0.000000 0.300000 -0.000000
v -0.000000 0.313397 0.050000
v -0.000000 0.350000 0.086603
v -0.000000 0.400000 0.100000
v -0.000000 0.450000 0.086603
v -0.000000 0.486603 0.050000
v 0.065263 0.495722 -0.000000
v 0.063514 0.482440 -0.050000
v 0.058737 0.446150 -0.086603
v 0.052211 0.396578 -0.100000
v 0.045684 0.347006 -0.086603
v 0.040907 0.310716 -0.050000
v 0.039158 0.297433 -0.000000
v 0.040907 0.310716 0.050000
v 0.045684 0.347006 0.086603
v 0.052211 0.396578 0.100000
v 0.058737 0.446150 0.086603
v 0.063514 0.482440 0.050000
v 0.129409 0.482963 -0.000000
v 0.125942 0.470022 -0.050000
v 0.116469 0.434667 -0.086603
v 0.103528 0.386370 -0.100000
v 0.090587 0.338074 -0.086603
v 0.081113 0.302719 -0.050000
v 0.077646 0.289778 -0.000000
v 0.081113 0.302719 0.050000
v 0.090587 0.338074 0.086603
v 0.103528 0.386370 0.100000
v 0.116469 0.434667 0.086603
v 0.125942 0.470022 0.050000
v 0.191342 0.461940 -0.000000
v 0.186215 0.449562 -0.050000
v 0.172208 0.415746 -0.086603
v 0.153073 0.369552 -0.100000
v 0.133939 0.323358 -0.086603
v 0.119932 0.289541 -0.050000
v 0.114805 0.277164 -0.000000
v 0.119932 0.289541 0.050000
v 0.133939 0.323358 0.086603
v 0.153073 0.369552 0.100000
v 0.172208 0.415746 0.086603
v 0.186215 0.449562 0.050000
v 0.250000 0.433013 -0.000000
v 0.243301 0.421410 -0.050000
v 0.225000 0.389711 -0.086603
v 0.200000 0.346410 -0.100000
v 0.175000 0.303109 -0.086603
v 0.156699 0.271410 -0.050000
v 0.150000 0.259808 -0.000000
v 0.156699 0.271410 0.050000
v 0.175000 0.303109 0.086603
v 0.200000 0.346410 0.100000
v 0.225000 0.389711 0.086603
v 0.243301 0.421410 0.050000
v 0.304381 0.396677 -0.000000
v 0.296225 0.386048 -0.050000
v 0.273943 0.357009 -0.086603
v 0.243505 0.317341 -0.100000
v 0.213067 0.277674 -0.086603
v 0.190784 0.248635 -0.050000
v 0.182628 0.238006 -0.000000
v 0.190784 0.248635 0.050000
v 0.213067 0.277674 0.086603
v 0.243505 0.317341 0.100000
v 0.273943 0.357009 0.086603
v 0.296225 0.386048 0.050000
v 0.353554 0.353553 -0.000000
v 0.344080 0.344080 -0.050000
v 0.318198 0.318198 -0.086603
v 0.282843 0.282843 -0.100000
v 0.247487 0.247487 -0.086603
v 0.221606 0.221605 -0.050000
v 0.212132 0.212132 -0.000000
v 0.221606 0.221605 0.050000
v 0.247487 0.247487 0.086603
v 0.282843 0.282843 0.100000
v 0.318198 0.318198 0.086603
v 0.344080 0.344080 0.050000
v 0.396677 0.304381 -0.000000
v 0.386048 0.296225 -0.050000
v 0.357009 0.273943 -0.086603
v 0.317341 0.243505 -0.100000
v 0.277674 0.213067 -0.086603
v 0.248635 0.190784 -0.050000
v 0.238006 0.182628 -0.000000
v 0.248635 0.190784 0.050000
v 0.277674 0.213067 0.086603
v 0.317341 0.243505 0.100000
v 0.357009 0.273943 0.086603
v 0.386048 0.296225 0.050000
v 0.433013 0.250000 -0.000000
v 0.421410 0.243301 -0.050000
v 0.389711 0.225000 -0.086603
v 0.346410 0.200000 -0.100000
v 0.303109 0.175000 -0.086603
v 0.271410 0.156699 -0.050000
v 0.259808 0.150000 -0.000000
v 0.271410 0.156699 0.050000
v 0.303109 0.175000 0.086603
v 0.346410 0.200000 0.100000
v 0.389711 0.225000 0.086603
v 0.421410 0.243301 0.050000
v 0.461940 0.191342 -0.000000
v 0.449562 0.186215 -0.050000
v 0.415746 0.172208 -0.086603
v 0.369552 0.153073 -0.100000
v 0.323358 0.133939 -0.086603
v 0.289541 0.119932 -0.050000
v 0.277164 0.114805 -0.000000
v 0.289541 0.119932 0.050000
v 0.323358 0.133939 0.086603
v 0.369552 0.153073 0.100000
v 0.415746 0.172208 0.086603
v 0.449562 0.186215 0.050000
v 0.482963 0.129409 -0.000000
v 0.470022 0.125942 -0.050000
v 0.434667 0.116469 -0.086603
v 0.386370 0.103528 -0.100000
v 0.338074 0.090587 -0.086603
v 0.302719 0.081113 -0.050000
v 0.289778 0.077646 -0.000000
v 0.302719 0.081113 0.050000
v 0.338074 0.090587 0.086603
v 0.386370 0.103528 0.100000
v 0.434667 0.116469 0.086603
v 0.470022 0.125942 0.050000
v 0.495722 0.065263 -0.000000
v 0.482440 0.063514 -0.050000
v 0.446150 0.058737 -0.086603
v 0.396578 0.052211 -0.100000
v 0.347006 0.045684 -0.086603
v 0.310716 0.040907 -0.050000
v 0.297433 0.039158 -0.000000
v 0.310716 0.040907 0.050000
v 0.347006 0.045684 0.086603
v 0.396578 0.052211 0.100000
v 0.446150 0.058737 0.086603
v 0.482440 0.063514 0.050000
v 0.500000 0.000000 -0.000000
v 0.486603 0.000000 -0.050000
v 0.450000 0.000000 -0.086603
v 0.400000 0.000000 -0.100000
v 0.350000 0.000000 -0.086603
v 0.313397 0.000000 -0.050000
v 0.300000 0.000000 -0.000000
v 0.313397 0.000000 0.050000
v 0.350000 0.000000 0.086603
v 0.400000 0.000000 0.100000
v 0.450000 0.000000 0.086603
v 0.486603 0.000000 0.050000
v 0.495722 -0.065263 0.000000
v 0.482440 -0.063514 -0.050000
v 0.446150 -0.058737 -0.086603
v 0.396578 -0.052211 -0.100000
v 0.347006 -0.045684 -0.086603
v 0.310716 -0.040907 -0.050000
v 0.297433 -0.039158 0.000000
v 0.310716 -0.040907 0.050000
v 0.347006 -0.045684 0.086603
v 0.396578 -0.052211 0.100000
v 0.446150 -0.058737 0.086603
v 0.482440 -0.063514 0.050000
v 0.482963 -0.129409 0.000000
v 0.470022 -0.125942 -0.050000
v 0.434667 -0.116469 -0.086603
v 0.386370 -0.103528 -0.100000
v 0.338074 -0.090587 -0.086603
v 0.302719 -0.081113 -0.050000
v 0.289778 -0.077646 0.000000
v 0.302719 -0.081113 0.050000
v 0.338074 -0.090587 0.086603
v 0.386370 -0.103528 0.100000
v 0.434667 -0.116469 0.086603
v 0.470022 -0.125942 0.050000
v 0.461940 -0.191342 0.000000
v 0.449562 -0.186215 -0.050000
v 0.415746 -0.172207 -0.086603
v 0.369552 -0.153073 -0.100000
v 0.323358 -0.133939 -0.086603
v 0.289542 -0.119932 -0.050000
v 0.277164 -0.114805 0.000000
v 0.289542 -0.119932 0.050000
v 0.323358 -0.133939 0.086603
v 0.369552 -0.153073 0.100000
v 0.415746 -0.172207 0.086603
v 0.449562 -0.186215 0.050000
v 0.433013 -0.250000 0.000000
v 0.421410 -0.243301 -0.050000
v 0.389711 -0.225000 -0.086603
v 0.346410 -0.200000 -0.100000
v 0.303109 -0.175000 -0.086603
v 0.271410 -0.156699 -0.050000
v 0.259808 -0.150000 0.000000
v 0.271410 -0.156699 0.050000
v 0.303109 -0.175000 0.086603
v 0.346410 -0.200000 0.100000
v 0.389711 -0.225000 0.086603
v 0.421410 -0.243301 0.050000
v 0.396677 -0.304381 0.000000
v 0.386048 -0.296225 -0.050000
v 0.357009 -0.273943 -0.086603
v 0.317341 -0.243505 -0.100000
v 0.277674 -0.213067 -0.086603
v 0.248635 -0.190784 -0.050000
v 0.238006 -0.182628 0.000000
v 0.248635 -0.190784 0.050000
v 0.277674 -0.213067 0.086603
v 0.317341 -0.243505 0.100000
v 0.357009 -0.273943 0.086603
v 0.386048 -0.296225 0.050000
v 0.353554 -0.353553 0.000000
v 0.344080 -0.344080 -0.050000
v 0.318198 -0.318198 -0.086603
v 0.282843 -0.282843 -0.100000
v 0.247487 -0.247487 -0.086603
v 0.221606 -0.221605 -0.050000
v 0.212132 -0.212132 0.000000
v 0.221606 -0.221605 0.050000
v 0.247487 -0.247487 0.086603
v 0.282843 -0.282843 0.100000
v 0.318198 -0.318198 0.086603
v 0.344080 -0.344080 0.050000
v 0.304381 -0.396677 0.000000
v 0.296225 -0.386048 -0.050000
v 0.273943 -0.357009 -0.086603
v 0.243505 -0.317341 -0.100000
v 0.213067 -0.277674 -0.086603
v 0.190784 -0.248635 -0.050000
v 0.182629 -0.238006 0.000000
v 0.190784 -0.248635 0.050000
v 0.213067 -0.277674 0.086603
v 0.243505 -0.317341 0.100000
v 0.273943 -0.357009 0.086603
v 0.296225 -0.386048 0.050000
v 0.250000 -0.433013 0.000000
v 0.243301 -0.421410 -0.050000
v 0.225000 -0.389711 -0.086603
v 0.200000 -0.346410 -0.100000
v 0.175000 -0.303109 -0.086603
v 0.156699 -0.271410 -0.050000
v 0.150000 -0.259808 0.000000
v 0.156699 -0.271410 0.050000
v 0.175000 -0.303109 0.086603
v 0.200000 -0.346410 0.100000
v 0.225000 -0.389711 0.086603
v 0.243301 -0.421410 0.050000
v 0.191342 -0.461940 0.000000
v 0.186215 -0.449562 -0.050000
v 0.172208 -0.415746 -0.086603
v 0.153073 -0.369552 -0.100000
v 0.133939 -0.323358 -0.086603
v 0.119932 -0.289541 -0.050000
v 0.114805 -0.277164 0.000000
v 0.119932 -0.289541 0.050000
v 0.133939 -0.323358 0.086603
v 0.153073 -0.369552 0.100000
v 0.172208 -0.415746 0.086603
v 0.186215 -0.449562 0.050000
v 0.129410 -0.482963 0.000000
v 0.125942 -0.470022 -0.050000
v 0.116469 -0.434667 -0.086603
v 0.103528 -0.386370 -0.100000
v 0.090587 -0.338074 -0.086603
v 0.081113 -0.302719 -0.050000
v 0.077646 -0.289778 0.000000
v 0.081113 -0.302719 0.050000
v 0.090587 -0.338074 0.086603
v 0.103528 -0.386370 0.100000
v 0.116469 -0.434667 0.086603
v 0.125942 -0.470022 0.050000
v 0.065263 -0.495722 0.000000
v 0.063515 -0.482440 -0.050000
v 0.058737 -0.446150 -0.086603
v 0.052211 -0.396578 -0.100000
v 0.045684 -0.347006 -0.086603
v 0.040907 -0.310716 -0.050000
v 0.039158 -0.297433 0.000000
v 0.040907 -0.310716 0.050000
v 0.045684 -0.347006 0.086603
v 0.052211 -0.396578 0.100000
v 0.058737 -0.446150 0.086603
v 0.063515 -0.482440 0.050000
v -0.000000 -0.500000 0.000000
v -0.000000 -0.486603 -0.050000
v -0.000000 -0.450000 -0.086603
v -0.000000 -0.400000 -0.100000
v -0.000000 -0.350000 -0.086603
v -0.000000 -0.313397 -0.050000
v -0.000000 -0.300000 0.000000
v -0.000000 -0.313397 0.050000
v -0.000000 -0.350000 0.086603
v -0.000000 -0.400000 0.100000
v -0.000000 -0.450000 0.086603
v -0.000000 -0.486603 0.050000
v -0.065263 -0.495722 0.000000
v -0.063514 -0.482440 -0.050000
v -0.058737 -0.446150 -0.086603
v -0.052210 -0.396578 -0.100000
v -0.045684 -0.347006 -0.086603
v -0.040907 -0.310716 -0.050000
v -0.039158 -0.297433 0.000000
v -0.040907 -0.310716 0.050000
v -0.045684 -0.347006 0.086603
v -0.052210 -0.396578 0.100000
v -0.058737 -0.446150 0.086603
v -0.063514 -0.482440 0.050000
v -0.129409 -0.482963 0.000000
v -0.125942 -0.470022 -0.050000
v -0.116468 -0.434667 -0.086603
v -0.103527 -0.386370 -0.100000
v -0.090587 -0.338074 -0.086603
v -0.081113 -0.302719 -0.050000
v -0.077646 -0.289778 0.000000
v -0.081113 -0.302719 0.050000
v -0.090587 -0.338074 0.086603
v -0.103527 -0.386370 0.100000
v -0.116468 -0.434667 0.086603
v -0.125942 -0.470022 0.050000
v -0.191342 -0.461940 0.000000
v -0.186215 -0.449562 -0.050000
v -0.172208 -0.415746 -0.086603
v -0.153073 -0.369552 -0.100000
v -0.133939 -0.323358 -0.086603
v -0.119932 -0.289541 -0.050000
v -0.114805 -0.277164 0.000000
v -0.119932 -0.289541 0.050000
v -0.133939 -0.323358 0.086603
v -0.153073 -0.369552 0.100000
v -0.172208 -0.415746 0.086603
v -0.186215 -0.449562 0.050000
v -0.250000 -0.433013 0.000000
v -0.243301 -0.421410 -0.050000
v -0.225000 -0.389711 -0.086603
v -0.200000 -0.346410 -0.100000
v -0.175000 -0.303109 -0.086603
v -0.156699 -0.271410 -0.050000
v -0.150000 -0.259808 0.000000
v -0.156699 -0.271410 0.050000
v -0.175000 -0.303109 0.086603
v -0.200000 -0.346410 0.100000
v -0.225000 -0.389711 0.086603
v -0.243301 -0.421410 0.050000
v -0.304381 -0.396677 0.000000
v -0.296225 -0.386048 -0.050000
v -0.273943 -0.357009 -0.086603
v -0.243504 -0.317341 -0.100000
v -0.213066 -0.277674 -0.086603
v -0.190784 -0.248635 -0.050000
v -0.182628 -0.238006 0.000000
v -0.190784 -0.248635 0.050000
v -0.213066 -0.277674 0.086603
v -0.243504 -0.317341 0.100000
v -0.273943 -0.357009 0.086603
v -0.296225 -0.386048 0.050000
v -0.353553 -0.353554 0.000000
v -0.344080 -0.344080 -0.050000
v -0.318198 -0.318198 -0.086603
v -0.282843 -0.282843 -0.100000
v -0.247487 -0.247488 -0.086603
v -0.221605 -0.221606 -0.050000
v -0.212132 -0.212132 0.000000
v -0.221605 -0.221606 0.050000
v -0.247487 -0.247488 0.086603
v -0.282843 -0.282843 0.100000
v -0.318198 -0.318198 0.086603
v -0.344080 -0.344080 0.050000
v -0.396677 -0.304381 0.000000
v -0.386048 -0.296225 -0.050000
v -0.357009 -0.273943 -0.086603
v -0.317341 -0.243505 -0.100000
v -0.277674 -0.213066 -0.086603
v -0.248635 -0.190784 -0.050000
v -0.238006 -0.182628 0.000000
v -0.248635 -0.190784 0.050000
v -0.277674 -0.213066 0.086603
v -0.317341 -0.243505 0.100000
v -0.357009 -0.273943 0.086603
v -0.386048 -0.296225 0.050000
v -0.433013 -0.250000 0.000000
v -0.421410 -0.243301 -0.050000
v -0.389711 -0.225000 -0.086603
v -0.346410 -0.200000 -0.100000
v -0.303109 -0.175000 -0.086603
v -0.271410 -0.156699 -0.050000
v -0.259808 -0.150000 0.000000
v -0.271410 -0.156699 0.050000
v -0.303109 -0.175000 0.086603
v -0.346410 -0.200000 0.100000
v -0.389711 -0.225000 0.086603
v -0.421410 -0.243301 0.050000
v -0.461940 -0.191342 0.000000
v -0.449562 -0.186215 -0.050000
v -0.415746 -0.172208 -0.086603
v -0.369552 -0.153074 -0.100000
v -0.323358 -0.133939 -0.086603
v -0.289541 -0.119932 -0.050000
v -0.277164 -0.114805 0.000000
v -0.289541 -0.119932 0.050000
v -0.323358 -0.133939 0.086603
v -0.369552 -0.153074 0.100000
v -0.415746 -0.172208 0.086603
v -0.449562 -0.186215 0.050000
v -0.482963 -0.129409 0.000000
v -0.470022 -0.125942 -0.050000
v -0.434667 -0.116468 -0.086603
v -0.386370 -0.103528 -0.100000
v -0.338074 -0.090587 -0.086603
v -0.302719 -0.081113 -0.050000
v -0.289778 -0.077646 0.000000
v -0.302719 -0.081113 0.050000
v -0.338074 -0.090587 0.086603
v -0.386370 -0.103528 0.100000
v -0.434667 -0.116468 0.086603
v -0.470022 -0.125942 0.050000
v -0.495722 -0.065263 0.000000
v -0.482440 -0.063514 -0.050000
v -0.446150 -0.058737 -0.086603
v -0.396578 -0.052210 -0.100000
v -0.347006 -0.045684 -0.086603
v -0.310716 -0.040907 -0.050000
v -0.297433 -0.039158 0.000000
v -0.310716 -0.040907 0.050000
v -0.347006 -0.045684 0.086603
v -0.396578 -0.052210 0.100000
v -0.446150 -0.058737 0.086603
v -0.482440 -0.063514 0.050000
vn -0.9640 0.0632 -0.2583
vn -0.7063 0.0463 -0.7063
vn -0.2588 0.0170 -0.9658
vn 0.2588 -0.0170 -0.9658
vn 0.7063 -0.0463 -0.7063
vn 0.9640 -0.0632 -0.2583
vn 0.9640 -0.0632 0.2583
vn 0.7063 -0.0463 0.7063
vn 0.2588 -0.0170 0.9658
vn -0.2588 0.0170 0.9658
vn -0.7063 0.0463 0.7063
vn -0.9640 0.0632 0.2583
vn -0.9475 0.1885 -0.2583
vn -0.6943 0.1381 -0.7063
vn -0.2544 0.0506 -0.9658
vn 0.2544 -0.0506 -0.9658
vn 0.6943 -0.1381 -0.7063
vn 0.9475 -0.1885 -0.2583
vn 0.9475 -0.1885 0.2583
vn 0.6943 -0.1381 0.7063
vn 0.2544 -0.0506 0.9658
vn -0.2544 0.0506 0.9658
vn -0.6943 0.1381 0.7063
vn -0.9475 0.1885 0.2583
vn -0.9148 0.3105 -0.2583
vn -0.6703 0.2275 -0.7063
vn -0.2456 0.0834 -0.9658
vn 0.2456 -0.0834 -0.9658
vn 0.6703 -0.2275 -0.7063
vn 0.9148 -0.3105 -0.2583
vn 0.9148 -0.3105 0.2583
vn 0.6703 -0.2275 0.7063
vn 0.2456 -0.0834 0.9658
vn -0.2456 0.0834 0.9658
vn -0.6703 0.2275 0.7063
vn -0.9148 0.3105 0.2583
vn -0.8664 0.4273 -0.2583
vn -0.6349 0.3131 -0.7063
vn -0.2326 0.1147 -0.9658
vn 0.2326 -0.1147 -0.9658
vn 0.6349 -0.3131 -0.7063
vn 0.8664 -0.4273 -0.2583
vn 0.8664 -0.4273 0.2583
vn 0.6349 -0.3131 0.7063
vn 0.2326 -0.1147 0.9658
vn -0.2326 0.1147 0.9658
vn -0.6349 0.3131 0.7063
vn -0.8664 0.4273 0.2583
vn -0.8033 0.5367 -0.2583
vn -0.5886 0.3933 -0.7063
vn -0.2156 0.1441 -0.9658
vn 0.2156 -0.1441 -0.9658
vn 0.5886 -0.3933 -0.7063
vn 0.8033 -0.5367 -0.2583
vn 0.8033 -0.5367 0.2583
vn 0.5886 -0.3933 0.7063
vn 0.2156 -0.1441 0.9658
vn -0.2156 0.1441 0.9658
vn -0.5886 0.3933 0.7063
vn -0.8033 0.5367 0.2583
vn -0.7263 0.6370 -0.2583
vn -0.5322 0.4667 -0.7063
vn -0.1950 0.1710 -0.9658
vn 0.1950 -0.1710 -0.9658
vn 0.5322 -0.4667 -0.7063
vn 0.7263 -0.6370 -0.2583
vn 0.7263 -0.6370 0.2583
vn 0.5322 -0.4667 0.7063
vn 0.1950 -0.1710 0.9658
vn -0.1950 0.1710 0.9658
vn -0.5322 0.4667 0.7063
vn -0.7263 0.6370 0.2583
vn -0.6370 0.7263 -0.2583
vn -0.4667 0.5322 -0.7063
vn -0.1710 0.1950 -0.9658
vn 0.1710 -0.1950 -0.9658
vn 0.4667 -0.5322 -0.7063
vn 0.6370 -0.7263 -0.2583
vn 0.6370 -0.7263 0.2583
vn 0.4667 -0.5322 0.7063
vn 0.1710 -0.1950 0.9658
vn -0.1710 0.1950 0.9658
vn -0.4667 0.5322 0.7063
vn -0.6370 0.7263 0.2583
vn -0.5367 0.8033 -0.2583
vn -0.3933 0.5886 -0.7063
vn -0.1441 0.2156 -0.9658
vn 0.1441 -0.2156 -0.9658
vn 0.3933 -0.5886 -0.7063
vn 0.5367 -0.8033 -0.2583
vn 0.5367 -0.8033 0.2583
vn 0.3933 -0.5886 0.7063
vn 0.1441 -0.2156 0.9658
vn -0.1441 0.2156 0.9658
vn -0.3933 0.5886 0.7063
vn -0.5367 0.8033 0.2583
vn -0.4273 0.8664 -0.2583
vn -0.3131 0.6349 -0.7063
vn -0.1147 0.2326 -0.9658
vn 0.1147 -0.2326 -0.9658
vn 0.3131 -0.6349 -0.7063
vn 0.4273 -0.8664 -0.2583
vn 0.4273 -0.8664 0.2583
vn 0.3131 -0.6349 0.7063
vn 0.1147 -0.2326 0.9658
vn -0.1147 0.2326 0.9658
vn -0.3131 0.6349 0.7063
vn -0.4273 0.8664 0.2583
vn -0.3105 0.9148 -0.2583
vn -0.2275 0.6703 -0.7063
vn -0.0834 0.2456 -0.9658
vn 0.0834 -0.2456 -0.9658
vn 0.2275 -0.6703 -0.7063
vn 0.3105 -0.9148 -0.2583
vn 0.3105 -0.9148 0.2583
vn 0.2275 -0.6703 0.7063
vn 0.0834 -0.2456 0.9658
vn -0.0834 0.2456 0.9658
vn -0.2275 0.6703 0.7063
vn -0.3105 0.9148 0.2583
vn -0.1885 0.9475 -0.2583
vn -0.1381 0.6943 -0.7063
vn -0.0506 0.2544 -0.9658
vn 0.0506 -0.2544 -0.9658
vn 0.1381 -0.6943 -0.7063
vn 0.1885 -0.9475 -0.2583
vn 0.1885 -0.9475 0.2583
vn 0.1381 -0.6943 0.7063
vn 0.0506 -0.2544 0.9658
vn -0.0506 0.2544 0.9658
vn -0.1381 0.6943 0.7063
vn -0.1885 0.9475 0.2583
vn -0.0632 0.9640 -0.2583
vn -0.0463 0.7063 -0.7063
vn -0.0170 0.2588 -0.9658
vn 0.0170 -0.2588 -0.9658
vn 0.0463 -0.7063 -0.7063
vn 0.0632 -0.9640 -0.2583
vn 0.0632 -0.9640 0.2583
vn 0.0463 -0.7063 0.7063
vn 0.0170 -0.2588 0.9658
vn -0.0170 0.2588 0.9658
vn -0.0463 0.7063 0.7063
vn -0.0632 0.9640 0.2583
vn 0.0632 0.9640 -0.2583
vn 0.0463 0.7063 -0.7063
vn 0.0170 0.2588 -0.9658
vn -0.0170 -0.2588 -0.9658
vn -0.0463 -0.7063 -0.7063
vn -0.0632 -0.9640 -0.2583
vn -0.0632 -0.9640 0.2583
vn -0.0463 -0.7063 0.7063
vn -0.0170 -0.2588 0.9658
vn 0.0170 0.2588 0.9658
vn 0.0463 0.7063 0.7063
vn 0.0632 0.9640 0.2583
vn 0.1885 0.9475 -0.2583
vn 0.1381 0.6943 -0.7063
vn 0.0506 0.2544 -0.9658
vn -0.0506 -0.2544 -0.9658
vn -0.1381 -0.6943 -0.7063
vn -0.1885 -0.9475 -0.2583
vn -0.1885 -0.9475 0.2583
vn -0.1381 -0.6943 0.7063
vn -0.0506 -0.2544 0.9658
vn 0.0506 0.2544 0.9658
vn 0.1381 0.6943 0.7063
vn 0.1885 0.9475 0.2583
vn 0.3105 0.9148 -0.2583
vn 0.2275 0.6703 -0.7063
vn 0.0834 0.2456 -0.9658
vn -0.0834 -0.2456 -0.9658
vn -0.2275 -0.6703 -0.7063
vn -0.3105 -0.9148 -0.2583
vn -0.3105 -0.9148 0.2583
vn -0.2275 -0.6703 0.7063
vn -0.0834 -0.2456 0.9658
vn 0.0834 0.2456 0.9658
vn 0.2275 0.6703 0.7063
vn 0.3105 0.9148 0.2583
vn 0.4273 0.8664 -0.2583
vn 0.3131 0.6349 -0.7063
vn 0.1147 0.2326 -0.9658
vn -0.1147 -0.2326 -0.9658
vn -0.3131 -0.6349 -0.7063
vn -0.4273 -0.8664 -0.2583
vn -0.4273 -0.8664 0.2583
vn -0.3131 -0.6349 0.7063
vn -0.1147 -0.2326 0.9658
vn 0.1147 0.2326 0.9658
vn 0.3131 0.6349 0.7063
vn 0.4273 0.8664 0.2583
vn 0.5367 0.8033 -0.2583
vn 0.3933 0.5886 -0.7063
vn 0.1441 0.2156 -0.9658
vn -0.1441 -0.2156 -0.9658
vn -0.3933 -0.5886 -0.7063
vn -0.5367 -0.8033 -0.2583
vn -0.5367 -0.8033 0.2583
vn -0.3933 -0.5886 0.7063
vn -0.1441 -0.2156 0.9658
vn 0.1441 0.2156 0.9658
vn 0.3933 0.5886 0.7063
vn 0.5367 0.8033 0.2583
vn 0.6370 0.7263 -0.2583
vn 0.4667 0.5322 -0.7063
vn 0.1710 0.1950 -0.9658
vn -0.1710 -0.1950 -0.9658
vn -0.4667 -0.5322 -0.7063
vn -0.6370 -0.7263 -0.2583
vn -0.6370 -0.7263 0.2583
vn -0.4667 -0.5322 0.7063
vn -0.1710 -0.1950 0.9658
vn 0.1710 0.1950 0.9658
vn 0.4667 0.5322 0.7063
vn 0.6370 0.7263 0.2583
vn 0.7263 0.6370 -0.2583
vn 0.5322 0.4667 -0.7063
vn 0.1950 0.1710 -0.9658
vn -0.1950 -0.1710 -0.9658
vn -0.5322 -0.4667 -0.7063
vn -0.7263 -0.6370 -0.2583
vn -0.7263 -0.6370 0.2583
vn -0.5322 -0.4667 0.7063
vn -0.1950 -0.1710 0.9658
vn 0.1950 0.1710 0.9658
vn 0.5322 0.4667 0.7063
vn 0.7263 0.6370 0.2583
vn 0.8033 0.5367 -0.2583
vn 0.5886 0.3933 -0.7063
vn 0.2156 0.1441 -0.9658
vn -0.2156 -0.1441 -0.9658
vn -0.5886 -0.3933 -0.7063
vn -0.8033 -0.5367 -0.2583
vn -0.8033 -0.5367 0.2583
vn -0.5886 -0.3933 0.7063
vn -0.2156 -0.1441 0.9658
vn 0.2156 0.1441 0.9658
vn 0.5886 0.3933 0.7063
vn 0.8033 0.5367 0.2583
vn 0.8664 0.4273 -0.2583
vn 0.6349 0.3131 -0.7063
vn 0.2326 0.1147 -0.9658
vn -0.2326 -0.1147 -0.9658
vn -0.6349 -0.3131 -0.7063
vn -0.8664 -0.4273 -0.2583
vn -0.8664 -0.4273 0.2583
vn -0.6349 -0.3131 0.7063
vn -0.2326 -0.1147 0.9658
vn 0.2326 0.1147 0.9658
vn 0.6349 0.3131 0.7063
vn 0.8664 0.4273 0.2583
vn 0.9148 0.3105 -0.2583
vn 0.6703 0.2275 -0.7063
vn 0.2456 0.0834 -0.9658
vn -0.2456 -0.0834 -0.9658
vn -0.6703 -0.2275 -0.7063
vn -0.9148 -0.3105 -0.2583
vn -0.9148 -0.3105 0.2583
vn -0.6703 -0.2275 0.7063
vn -0.2456 -0.0834 0.9658
vn 0.2456 0.0834 0.9658
vn 0.6703 0.2275 0.7063
vn 0.9148 0.3105 0.2583
vn 0.9475 0.1885 -0.2583
vn 0.6943 0.1381 -0.7063
vn 0.2544 0.0506 -0.9658
vn -0.2544 -0.0506 -0.9658
vn -0.6943 -0.1381 -0.7063
vn -0.9475 -0.1885 -0.2583
vn -0.9475 -0.1885 0.2583
vn -0.6943 -0.1381 0.7063
vn -0.2544 -0.0506 0.9658
vn 0.2544 0.0506 0.9658
vn 0.6943 0.1381 0.7063
vn 0.9475 0.1885 0.2583
vn 0.9640 0.0632 -0.2583
vn 0.7063 0.0463 -0.7063
vn 0.2588 0.0170 -0.9658
vn -0.2588 -0.0170 -0.9658
vn -0.7063 -0.0463 -0.7063
vn -0.9640 -0.0632 -0.2583
vn -0.9640 -0.0632 0.2583
vn -0.7063 -0.0463 0.7063
vn -0.2588 -0.0170 0.9658
vn 0.2588 0.0170 0.9658
vn 0.7063 0.0463 0.7063
vn 0.9640 0.0632 0.2583
vt 0.520833 0.500000
vt 0.500000 0.583333
vt 0.500000 0.500000
vt 0.520833 0.583333
vt 0.500000 0.666667
vt 0.520833 0.750000
vt 0.500000 0.750000
vt 0.500000 0.833333
vt 0.520833 0.833333
vt 0.500000 0.916667
vt 0.520833 0.916667
vt 0.500000 1.000000
vt 0.500000 0.000000
vt 0.520833 0.083333
vt 0.500000 0.083333
vt 0.500000 0.166667
vt 0.520833 0.166667
vt 0.500000 0.250000
vt 0.520833 0.250000
vt 0.500000 0.333333
vt 0.520833 0.333333
vt 0.500000 0.416667
vt 0.541667 0.583333
vt 0.520833 0.666667
vt 0.541667 0.750000
vt 0.541667 0.833333
vt 0.541667 1.000000
vt 0.520833 1.000000
vt 0.541667 0.000000
vt 0.520833 0.000000
vt 0.541667 0.083333
vt 0.541667 0.250000
vt 0.541667 0.416667
vt 0.520833 0.416667
vt 0.562500 0.500000
vt 0.541667 0.500000
vt 0.562500 0.666667
vt 0.541667 0.666667
vt 0.562500 0.750000
vt 0.562500 0.833333
vt 0.541667 0.916667
vt 0.562500 0.916667
vt 0.562500 0.000000
vt 0.562500 0.083333
vt 0.541667 0.166667
vt 0.562500 0.166667
vt 0.562500 0.333333
vt 0.541667 0.333333
vt 0.562500 0.416667
vt 0.583333 0.583333
vt 0.562500 0.583333
vt 0.583333 0.666667
vt 0.583333 0.750000
vt 0.583333 0.916667
vt 0.562500 1.000000
vt 0.583333 0.000000
vt 0.583333 0.083333
vt 0.583333 0.250000
vt 0.562500 0.250000
vt 0.583333 0.416667
vt 0.604167 0.500000
vt 0.583333 0.500000
vt 0.604167 0.583333
vt 0.604167 0.666667
vt 0.604167 0.833333
vt 0.583333 0.833333
vt 0.604167 0.916667
vt 0.583333 1.000000
vt 0.604167 0.083333
vt 0.583333 0.166667
vt 0.604167 0.166667
vt 0.604167 0.333333
vt 0.583333 0.333333
vt 0.625000 0.500000
vt 0.625000 0.666667
vt 0.604167 0.750000
vt 0.625000 0.750000
vt 0.625000 0.916667
vt 0.604167 1.000000
vt 0.625000 0.000000
vt 0.604167 0.000000
vt 0.625000 0.166667
vt 0.625000 0.250000
vt 0.604167 0.250000
vt 0.625000 0.416667
vt 0.604167 0.416667
vt 0.645833 0.500000
vt 0.625000 0.583333
vt 0.645833 0.666667
vt 0.645833 0.750000
vt 0.625000 0.833333
vt 0.645833 0.833333
vt 0.645833 0.916667
vt 0.625000 1.000000
vt 0.645833 0.000000
vt 0.625000 0.083333
vt 0.645833 0.166667
vt 0.645833 0.250000
vt 0.625000 0.333333
vt 0.645833 0.333333
vt 0.666667 0.500000
vt 0.645833 0.583333
vt 0.666667 0.583333
vt 0.666667 0.750000
vt 0.666667 0.833333
vt 0.666667 0.916667
vt 0.666667 1.000000
vt 0.645833 1.000000
vt 0.666667 0.000000
vt 0.645833 0.083333
vt 0.666667 0.083333
vt 0.666667 0.166667
vt 0.666667 0.250000
vt 0.666667 0.333333
vt 0.645833 0.416667
vt 0.666667 0.416667
vt 0.687500 0.583333
vt 0.666667 0.666667
vt 0.687500 0.666667
vt 0.687500 0.750000
vt 0.687500 0.833333
vt 0.687500 0.916667
vt 0.687500 0.083333
vt 0.687500 0.166667
vt 0.687500 0.333333
vt 0.687500 0.416667
vt 0.708333 0.500000
vt 0.687500 0.500000
vt 0.708333 0.666667
vt 0.708333 0.750000
vt 0.708333 0.833333
vt 0.708333 0.916667
vt 0.687500 1.000000
vt 0.708333 0.000000
vt 0.687500 0.000000
vt 0.708333 0.083333
vt 0.708333 0.166667
vt 0.687500 0.250000
vt 0.708333 0.250000
vt 0.708333 0.333333
vt 0.708333 0.416667
vt 0.729167 0.583333
vt 0.708333 0.583333
vt 0.729167 0.750000
vt 0.729167 0.833333
vt 0.729167 0.916667
vt 0.708333 1.000000
vt 0.729167 0.000000
vt 0.729167 0.083333
vt 0.729167 0.250000
vt 0.729167 0.333333
vt 0.729167 0.416667
vt 0.750000 0.500000
vt 0.729167 0.500000
vt 0.750000 0.583333
vt 0.729167 0.666667
vt 0.750000 0.750000
vt 0.750000 0.833333
vt 0.750000 1.000000
vt 0.729167 1.000000
vt 0.750000 0.000000
vt 0.750000 0.083333
vt 0.729167 0.166667
vt 0.750000 0.166667
vt 0.750000 0.333333
vt 0.750000 0.416667
vt 0.770833 0.500000
vt 0.770833 0.583333
vt 0.750000 0.666667
vt 0.770833 0.666667
vt 0.770833 0.750000
vt 0.770833 0.916667
vt 0.750000 0.916667
vt 0.770833 0.000000
vt 0.770833 0.083333
vt 0.770833 0.166667
vt 0.750000 0.250000
vt 0.770833 0.250000
vt 0.770833 0.416667
vt 0.791667 0.583333
vt 0.791667 0.666667
vt 0.791667 0.750000
vt 0.770833 0.833333
vt 0.791667 0.833333
vt 0.791667 0.916667
vt 0.770833 1.000000
vt 0.791667 0.000000
vt 0.791667 0.083333
vt 0.791667 0.166667
vt 0.791667 0.250000
vt 0.770833 0.333333
vt 0.791667 0.333333
vt 0.791667 0.416667
vt 0.791667 0.500000
vt 0.812500 0.583333
vt 0.812500 0.666667
vt 0.812500 0.750000
vt 0.812500 0.833333
vt 0.812500 0.916667
vt 0.791667 1.000000
vt 0.812500 0.083333
vt 0.812500 0.250000
vt 0.812500 0.416667
vt 0.812500 0.500000
vt 0.833333 0.583333
vt 0.833333 0.666667
vt 0.833333 0.750000
vt 0.833333 0.833333
vt 0.833333 0.916667
vt 0.812500 1.000000
vt 0.833333 0.000000
vt 0.812500 0.000000
vt 0.833333 0.083333
vt 0.812500 0.166667
vt 0.833333 0.166667
vt 0.833333 0.333333
vt 0.812500 0.333333
vt 0.833333 0.500000
vt 0.854167 0.500000
vt 0.854167 0.583333
vt 0.854167 0.666667
vt 0.854167 0.750000
vt 0.854167 0.833333
vt 0.854167 0.916667
vt 0.833333 1.000000
vt 0.854167 0.000000
vt 0.854167 0.166667
vt 0.833333 0.250000
vt 0.854167 0.333333
vt 0.854167 0.416667
vt 0.833333 0.416667
vt 0.875000 0.583333
vt 0.875000 0.666667
vt 0.875000 0.833333
vt 0.875000 0.916667
vt 0.854167 1.000000
vt 0.875000 0.000000
vt 0.854167 0.083333
vt 0.875000 0.166667
vt 0.854167 0.250000
vt 0.875000 0.250000
vt 0.875000 0.416667
vt 0.895833 0.500000
vt 0.875000 0.500000
vt 0.895833 0.583333
vt 0.895833 0.750000
vt 0.875000 0.750000
vt 0.895833 0.916667
vt 0.875000 1.000000
vt 0.895833 0.000000
vt 0.875000 0.083333
vt 0.895833 0.083333
vt 0.895833 0.166667
vt 0.895833 0.250000
vt 0.875000 0.333333
vt 0.895833 0.333333
vt 0.895833 0.416667
vt 0.916667 0.583333
vt 0.895833 0.666667
vt 0.916667 0.750000
vt 0.895833 0.833333
vt 0.916667 0.833333
vt 0.916667 0.916667
vt 0.895833 1.000000
vt 0.916667 0.000000
vt 0.916667 0.083333
vt 0.916667 0.166667
vt 0.916667 0.250000
vt 0.916667 0.333333
vt 0.916667 0.416667
vt 0.937500 0.500000
vt 0.916667 0.500000
vt 0.937500 0.583333
vt 0.916667 0.666667
vt 0.937500 0.750000
vt 0.937500 0.833333
vt 0.937500 0.916667
vt 0.916667 1.000000
vt 0.937500 0.000000
vt 0.937500 0.083333
vt 0.937500 0.166667
vt 0.937500 0.250000
vt 0.937500 0.416667
vt 0.958333 0.500000
vt 0.958333 0.666667
vt 0.937500 0.666667
vt 0.958333 0.750000
vt 0.958333 0.833333
vt 0.958333 0.916667
vt 0.937500 1.000000
vt 0.958333 0.000000
vt 0.958333 0.083333
vt 0.958333 0.166667
vt 0.958333 0.250000
vt 0.937500 0.333333
vt 0.958333 0.333333
vt 0.958333 0.416667
vt 0.979167 0.500000
vt 0.958333 0.583333
vt 0.979167 0.583333
vt 0.979167 0.666667
vt 0.979167 0.750000
vt 0.979167 0.833333
vt 0.979167 0.916667
vt 0.958333 1.000000
vt 0.979167 0.000000
vt 0.979167 0.083333
vt 0.979167 0.166667
vt 0.979167 0.333333
vt 0.979167 0.416667
vt 1.000000 0.583333
vt 1.000000 0.666667
vt 1.000000 0.833333
vt 1.000000 0.916667
vt 0.979167 1.000000
vt 1.000000 0.000000
vt 1.000000 0.083333
vt 1.000000 0.250000
vt 0.979167 0.250000
vt 1.000000 0.333333
vt 1.000000 0.416667
vt 0.020833 0.500000
vt 0.000000 0.583333
vt 0.000000 0.500000
vt 0.020833 0.583333
vt 0.000000 0.666667
vt 0.020833 0.666667
vt 0.000000 0.750000
vt 0.020833 0.833333
vt 0.000000 0.833333
vt 0.000000 0.916667
vt 0.020833 0.916667
vt 0.000000 1.000000
vt 0.000000 0.000000
vt 0.020833 0.083333
vt 0.000000 0.083333
vt 0.020833 0.166667
vt 0.000000 0.166667
vt 0.000000 0.250000
vt 0.020833 0.250000
vt 0.000000 0.333333
vt 0.020833 0.416667
vt 0.000000 0.416667
vt 0.041667 0.583333
vt 0.041667 0.666667
vt 0.041667 0.750000
vt 0.020833 0.750000
vt 0.041667 0.833333
vt 0.041667 0.916667
vt 0.020833 1.000000
vt 0.041667 0.000000
vt 0.020833 0.000000
vt 0.041667 0.083333
vt 0.041667 0.166667
vt 0.041667 0.250000
vt 0.020833 0.333333
vt 0.041667 0.333333
vt 0.041667 0.416667
vt 0.041667 0.500000
vt 0.062500 0.583333
vt 0.062500 0.666667
vt 0.062500 0.750000
vt 0.062500 0.833333
vt 0.062500 0.916667
vt 0.041667 1.000000
vt 0.062500 0.000000
vt 0.062500 0.083333
vt 0.062500 0.166667
vt 0.062500 0.250000
vt 0.062500 0.333333
vt 0.062500 0.416667
vt 0.083333 0.500000
vt 0.062500 0.500000
vt 0.083333 0.583333
vt 0.083333 0.666667
vt 0.083333 0.750000
vt 0.083333 0.833333
vt 0.083333 0.916667
vt 0.062500 1.000000
vt 0.083333 0.000000
vt 0.083333 0.166667
vt 0.083333 0.250000
vt 0.083333 0.333333
vt 0.083333 0.416667
vt 0.104167 0.500000
vt 0.104167 0.583333
vt 0.104167 0.666667
vt 0.104167 0.750000
vt 0.104167 0.916667
vt 0.083333 1.000000
vt 0.104167 0.000000
vt 0.083333 0.083333
vt 0.104167 0.083333
vt 0.104167 0.166667
vt 0.104167 0.333333
vt 0.104167 0.416667
vt 0.125000 0.500000
vt 0.125000 0.583333
vt 0.125000 0.666667
vt 0.125000 0.750000
vt 0.104167 0.833333
vt 0.125000 0.833333
vt 0.125000 0.916667
vt 0.104167 1.000000
vt 0.125000 0.000000
vt 0.125000 0.166667
vt 0.104167 0.250000
vt 0.125000 0.333333
vt 0.125000 0.416667
vt 0.145833 0.500000
vt 0.145833 0.583333
vt 0.145833 0.666667
vt 0.145833 0.750000
vt 0.145833 0.833333
vt 0.145833 0.916667
vt 0.125000 1.000000
vt 0.145833 0.000000
vt 0.125000 0.083333
vt 0.145833 0.083333
vt 0.145833 0.166667
vt 0.125000 0.250000
vt 0.145833 0.250000
vt 0.145833 0.333333
vt 0.145833 0.416667
vt 0.166667 0.500000
vt 0.166667 0.666667
vt 0.166667 0.750000
vt 0.166667 0.833333
vt 0.166667 0.916667
vt 0.145833 1.000000
vt 0.166667 0.000000
vt 0.166667 0.166667
vt 0.166667 0.250000
vt 0.166667 0.333333
vt 0.166667 0.416667
vt 0.187500 0.500000
vt 0.166667 0.583333
vt 0.187500 0.583333
vt 0.187500 0.750000
vt 0.187500 0.833333
vt 0.187500 0.916667
vt 0.166667 1.000000
vt 0.187500 0.000000
vt 0.166667 0.083333
vt 0.187500 0.083333
vt 0.187500 0.166667
vt 0.187500 0.250000
vt 0.187500 0.333333
vt 0.208333 0.583333
vt 0.187500 0.666667
vt 0.208333 0.750000
vt 0.208333 0.833333
vt 0.208333 1.000000
vt 0.187500 1.000000
vt 0.208333 0.000000
vt 0.208333 0.083333
vt 0.208333 0.166667
vt 0.208333 0.250000
vt 0.208333 0.416667
vt 0.187500 0.416667
vt 0.229167 0.500000
vt 0.208333 0.500000
vt 0.229167 0.583333
vt 0.208333 0.666667
vt 0.229167 0.666667
vt 0.229167 0.750000
vt 0.229167 0.833333
vt 0.208333 0.916667
vt 0.229167 0.916667
vt 0.229167 0.000000
vt 0.229167 0.083333
vt 0.229167 0.166667
vt 0.229167 0.333333
vt 0.208333 0.333333
vt 0.229167 0.416667
vt 0.250000 0.500000
vt 0.250000 0.583333
vt 0.250000 0.666667
vt 0.250000 0.833333
vt 0.250000 0.916667
vt 0.229167 1.000000
vt 0.250000 0.000000
vt 0.250000 0.083333
vt 0.250000 0.166667
vt 0.229167 0.250000
vt 0.250000 0.250000
vt 0.250000 0.333333
vt 0.250000 0.416667
vt 0.270833 0.500000
vt 0.270833 0.666667
vt 0.250000 0.750000
vt 0.270833 0.750000
vt 0.270833 0.833333
vt 0.270833 0.916667
vt 0.250000 1.000000
vt 0.270833 0.000000
vt 0.270833 0.083333
vt 0.270833 0.166667
vt 0.270833 0.250000
vt 0.270833 0.333333
vt 0.270833 0.416667
vt 0.291667 0.500000
vt 0.270833 0.583333
vt 0.291667 0.583333
vt 0.291667 0.666667
vt 0.291667 0.750000
vt 0.291667 0.916667
vt 0.291667 1.000000
vt 0.270833 1.000000
vt 0.291667 0.000000
vt 0.291667 0.166667
vt 0.291667 0.250000
vt 0.291667 0.333333
vt 0.291667 0.416667
vt 0.312500 0.500000
vt 0.312500 0.583333
vt 0.312500 0.750000
vt 0.291667 0.833333
vt 0.312500 0.833333
vt 0.312500 0.916667
vt 0.312500 0.000000
vt 0.291667 0.083333
vt 0.312500 0.083333
vt 0.312500 0.166667
vt 0.312500 0.250000
vt 0.312500 0.333333
vt 0.333333 0.500000
vt 0.333333 0.666667
vt 0.312500 0.666667
vt 0.333333 0.750000
vt 0.333333 0.833333
vt 0.333333 1.000000
vt 0.312500 1.000000
vt 0.333333 0.000000
vt 0.333333 0.166667
vt 0.333333 0.250000
vt 0.333333 0.333333
vt 0.312500 0.416667
vt 0.333333 0.416667
vt 0.354167 0.583333
vt 0.333333 0.583333
vt 0.354167 0.666667
vt 0.354167 0.750000
vt 0.354167 0.833333
vt 0.333333 0.916667
vt 0.354167 0.916667
vt 0.354167 0.083333
vt 0.333333 0.083333
vt 0.354167 0.166667
vt 0.354167 0.250000
vt 0.354167 0.333333
vt 0.354167 0.416667
vt 0.354167 0.500000
vt 0.375000 0.583333
vt 0.375000 0.666667
vt 0.375000 0.833333
vt 0.375000 0.916667
vt 0.375000 1.000000
vt 0.354167 1.000000
vt 0.375000 0.000000
vt 0.354167 0.000000
vt 0.375000 0.083333
vt 0.375000 0.166667
vt 0.375000 0.250000
vt 0.375000 0.416667
vt 0.395833 0.500000
vt 0.375000 0.500000
vt 0.395833 0.583333
vt 0.395833 0.666667
vt 0.375000 0.750000
vt 0.395833 0.833333
vt 0.395833 1.000000
vt 0.395833 0.083333
vt 0.395833 0.166667
vt 0.395833 0.250000
vt 0.375000 0.333333
vt 0.395833 0.416667
vt 0.416667 0.583333
vt 0.416667 0.666667
vt 0.416667 0.750000
vt 0.395833 0.750000
vt 0.416667 0.833333
vt 0.395833 0.916667
vt 0.416667 1.000000
vt 0.416667 0.000000
vt 0.395833 0.000000
vt 0.416667 0.083333
vt 0.416667 0.250000
vt 0.395833 0.333333
vt 0.416667 0.416667
vt 0.437500 0.500000
vt 0.416667 0.500000
vt 0.437500 0.583333
vt 0.437500 0.750000
vt 0.437500 0.916667
vt 0.416667 0.916667
vt 0.437500 0.000000
vt 0.437500 0.083333
vt 0.416667 0.166667
vt 0.437500 0.166667
vt 0.437500 0.250000
vt 0.416667 0.333333
vt 0.437500 0.333333
vt 0.437500 0.416667
vt 0.458333 0.500000
vt 0.458333 0.583333
vt 0.437500 0.666667
vt 0.458333 0.666667
vt 0.458333 0.750000
vt 0.437500 0.833333
vt 0.458333 0.833333
vt 0.458333 0.916667
vt 0.437500 1.000000
vt 0.458333 0.000000
vt 0.458333 0.083333
vt 0.458333 0.166667
vt 0.458333 0.250000
vt 0.458333 0.333333
vt 0.458333 0.416667
vt 0.479167 0.500000
vt 0.479167 0.666667
vt 0.479167 0.833333
vt 0.479167 0.916667
vt 0.479167 1.000000
vt 0.458333 1.000000
vt 0.479167 0.000000
vt 0.479167 0.083333
vt 0.479167 0.166667
vt 0.479167 0.333333
vt 0.479167 0.416667
vt 0.479167 0.583333
vt 0.479167 0.750000
vt 0.479167 0.250000
vt 1.000000 0.500000
vt 1.000000 0.750000
vt 1.000000 1.000000
vt 1.000000 0.166667
s 0
usemtl マテリアル
f 13/1/1 2/2/1 1/3/1
f 14/4/2 3/5/2 2/2/2
f 3/5/3 16/6/3 4/7/3
f 16/6/4 5/8/4 4/7/4
f 17/9/5 6/10/5 5/8/5
f 18/11/6 7/12/6 6/10/6
f 7/13/7 20/14/7 8/15/7
f 20/14/8 9/16/8 8/15/8
f 21/17/9 10/18/9 9/16/9
f 22/19/10 11/20/10 10/18/10
f 23/21/11 12/22/11 11/20/11
f 12/22/12 13/1/12 1/3/12
f 13/1/13 26/23/13 14/4/13
f 26/23/14 15/24/14 14/4/14
f 15/24/15 28/25/15 16/6/15
f 28/25/16 17/9/16 16/6/16
f 29/26/17 18/11/17 17/9/17
f 18/11/18 31/27/18 19/28/18
f 31/29/19 20/14/19 19/30/19
f 32/31/20 21/17/20 20/14/20
f 21/17/21 34/32/21 22/19/21
f 34/32/22 23/21/22 22/19/22
f 23/21/23 36/33/23 24/34/23
f 36/33/24 13/1/24 24/34/24
f 37/35/25 26/23/25 25/36/25
f 26/23/26 39/37/26 27/38/26
f 39/37/27 28/25/27 27/38/27
f 40/39/28 29/26/28 28/25/28
f 41/40/29 30/41/29 29/26/29
f 42/42/30 31/27/30 30/41/30
f 43/43/31 32/31/31 31/29/31
f 44/44/32 33/45/32 32/31/32
f 45/46/33 34/32/33 33/45/33
f 34/32/34 47/47/34 35/48/34
f 47/47/35 36/33/35 35/48/35
f 48/49/36 25/36/36 36/33/36
f 37/35/37 50/50/37 38/51/37
f 50/50/38 39/37/38 38/51/38
f 51/52/39 40/39/39 39/37/39
f 52/53/40 41/40/40 40/39/40
f 41/40/41 54/54/41 42/42/41
f 54/54/42 43/55/42 42/42/42
f 55/56/43 44/44/43 43/43/43
f 56/57/44 45/46/44 44/44/44
f 45/46/45 58/58/45 46/59/45
f 58/58/46 47/47/46 46/59/46
f 47/47/47 60/60/47 48/49/47
f 60/60/48 37/35/48 48/49/48
f 61/61/49 50/50/49 49/62/49
f 62/63/50 51/52/50 50/50/50
f 63/64/51 52/53/51 51/52/51
f 52/53/52 65/65/52 53/66/52
f 65/65/53 54/54/53 53/66/53
f 66/67/54 55/68/54 54/54/54
f 55/56/55 68/69/55 56/57/55
f 68/69/56 57/70/56 56/57/56
f 69/71/57 58/58/57 57/70/57
f 58/58/58 71/72/58 59/73/58
f 71/72/59 60/60/59 59/73/59
f 60/60/60 61/61/60 49/62/60
f 73/74/61 62/63/61 61/61/61
f 62/63/62 75/75/62 63/64/62
f 75/75/63 64/76/63 63/64/63
f 76/77/64 65/65/64 64/76/64
f 65/65/65 78/78/65 66/67/65
f 78/78/66 67/79/66 66/67/66
f 79/80/67 68/69/67 67/81/67
f 68/69/68 81/82/68 69/71/68
f 69/71/69 82/83/69 70/84/69
f 82/83/70 71/72/70 70/84/70
f 71/72/71 84/85/71 72/86/71
f 72/86/72 73/74/72 61/61/72
f 85/87/73 74/88/73 73/74/73
f 74/88/74 87/89/74 75/75/74
f 87/89/75 76/77/75 75/75/75
f 88/90/76 77/91/76 76/77/76
f 89/92/77 78/78/77 77/91/77
f 90/93/78 79/94/78 78/78/78
f 91/95/79 80/96/79 79/80/79
f 80/96/80 93/97/80 81/82/80
f 93/97/81 82/83/81 81/82/81
f 94/98/82 83/99/82 82/83/82
f 95/100/83 84/85/83 83/99/83
f 84/85/84 85/87/84 73/74/84
f 97/101/85 86/102/85 85/87/85
f 98/103/86 87/89/86 86/102/86
f 87/89/87 100/104/87 88/90/87
f 88/90/88 101/105/88 89/92/88
f 89/92/89 102/106/89 90/93/89
f 90/93/90 103/107/90 91/108/90
f 103/109/91 92/110/91 91/95/91
f 104/111/92 93/97/92 92/110/92
f 105/112/93 94/98/93 93/97/93
f 106/113/94 95/100/94 94/98/94
f 107/114/95 96/115/95 95/100/95
f 108/116/96 85/87/96 96/115/96
f 97/101/97 110/117/97 98/103/97
f 110/117/98 99/118/98 98/103/98
f 111/119/99 100/104/99 99/118/99
f 112/120/100 101/105/100 100/104/100
f 113/121/101 102/106/101 101/105/101
f 114/122/102 103/107/102 102/106/102
f 103/109/103 116/123/103 104/111/103
f 116/123/104 105/112/104 104/111/104
f 117/124/105 106/113/105 105/112/105
f 106/113/106 119/125/106 107/114/106
f 107/114/107 120/126/107 108/116/107
f 120/126/108 97/101/108 108/116/108
f 121/127/109 110/117/109 109/128/109
f 110/117/110 123/129/110 111/119/110
f 111/119/111 124/130/111 112/120/111
f 112/120/112 125/131/112 113/121/112
f 113/121/113 126/132/113 114/122/113
f 126/132/114 115/133/114 114/122/114
f 127/134/115 116/123/115 115/135/115
f 128/136/116 117/124/116 116/123/116
f 129/137/117 118/138/117 117/124/117
f 130/139/118 119/125/118 118/138/118
f 131/140/119 120/126/119 119/125/119
f 132/141/120 109/128/120 120/126/120
f 121/127/121 134/142/121 122/143/121
f 134/142/122 123/129/122 122/143/122
f 123/129/123 136/144/123 124/130/123
f 124/130/124 137/145/124 125/131/124
f 137/145/125 126/132/125 125/131/125
f 138/146/126 127/147/126 126/132/126
f 139/148/127 128/136/127 127/134/127
f 140/149/128 129/137/128 128/136/128
f 129/137/129 142/150/129 130/139/129
f 142/150/130 131/140/130 130/139/130
f 143/151/131 132/141/131 131/140/131
f 144/152/132 121/127/132 132/141/132
f 145/153/133 134/142/133 133/154/133
f 146/155/134 135/156/134 134/142/134
f 135/156/135 148/157/135 136/144/135
f 148/157/136 137/145/136 136/144/136
f 149/158/137 138/146/137 137/145/137
f 138/146/138 151/159/138 139/160/138
f 151/161/139 140/149/139 139/148/139
f 152/162/140 141/163/140 140/149/140
f 153/164/141 142/150/141 141/163/141
f 142/150/142 155/165/142 143/151/142
f 143/151/143 156/166/143 144/152/143
f 156/166/144 133/154/144 144/152/144
f 157/167/145 146/155/145 145/153/145
f 158/168/146 147/169/146 146/155/146
f 159/170/147 148/157/147 147/169/147
f 160/171/148 149/158/148 148/157/148
f 149/158/149 162/172/149 150/173/149
f 162/172/150 151/159/150 150/173/150
f 163/174/151 152/162/151 151/161/151
f 164/175/152 153/164/152 152/162/152
f 165/176/153 154/177/153 153/164/153
f 166/178/154 155/165/154 154/177/154
f 155/165/155 168/179/155 156/166/155
f 168/179/156 145/153/156 156/166/156
f 157/167/157 170/180/157 158/168/157
f 170/180/158 159/170/158 158/168/158
f 171/181/159 160/171/159 159/170/159
f 172/182/160 161/183/160 160/171/160
f 173/184/161 162/172/161 161/183/161
f 174/185/162 163/186/162 162/172/162
f 175/187/163 164/175/163 163/174/163
f 176/188/164 165/176/164 164/175/164
f 177/189/165 166/178/165 165/176/165
f 178/190/166 167/191/166 166/178/166
f 179/192/167 168/179/167 167/191/167
f 180/193/168 157/167/168 168/179/168
f 169/194/169 182/195/169 170/180/169
f 182/195/170 171/181/170 170/180/170
f 183/196/171 172/182/171 171/181/171
f 184/197/172 173/184/172 172/182/172
f 185/198/173 174/185/173 173/184/173
f 186/199/174 175/200/174 174/185/174
f 175/187/175 188/201/175 176/188/175
f 188/201/176 177/189/176 176/188/176
f 177/189/177 190/202/177 178/190/177
f 190/202/178 179/192/178 178/190/178
f 179/192/179 192/203/179 180/193/179
f 192/203/180 169/194/180 180/193/180
f 181/204/181 194/205/181 182/195/181
f 194/205/182 183/196/182 182/195/182
f 195/206/183 184/197/183 183/196/183
f 196/207/184 185/198/184 184/197/184
f 197/208/185 186/199/185 185/198/185
f 198/209/186 187/210/186 186/199/186
f 199/211/187 188/201/187 187/212/187
f 200/213/188 189/214/188 188/201/188
f 201/215/189 190/202/189 189/214/189
f 190/202/190 203/216/190 191/217/190
f 203/216/191 192/203/191 191/217/191
f 192/203/192 193/218/192 181/204/192
f 205/219/193 194/205/193 193/218/193
f 206/220/194 195/206/194 194/205/194
f 207/221/195 196/207/195 195/206/195
f 208/222/196 197/208/196 196/207/196
f 209/223/197 198/209/197 197/208/197
f 210/224/198 199/225/198 198/209/198
f 211/226/199 200/213/199 199/211/199
f 200/213/200 213/227/200 201/215/200
f 213/227/201 202/228/201 201/215/201
f 202/228/202 215/229/202 203/216/202
f 203/216/203 216/230/203 204/231/203
f 204/231/204 205/219/204 193/218/204
f 205/219/205 218/232/205 206/220/205
f 218/232/206 207/221/206 206/220/206
f 219/233/207 208/222/207 207/221/207
f 208/222/208 221/234/208 209/223/208
f 221/234/209 210/224/209 209/223/209
f 222/235/210 211/236/210 210/224/210
f 223/237/211 212/238/211 211/226/211
f 212/238/212 225/239/212 213/227/212
f 225/239/213 214/240/213 213/227/213
f 226/241/214 215/229/214 214/240/214
f 215/229/215 228/242/215 216/230/215
f 228/242/216 205/219/216 216/230/216
f 229/243/217 218/232/217 217/244/217
f 230/245/218 219/233/218 218/232/218
f 219/233/219 232/246/219 220/247/219
f 232/246/220 221/234/220 220/247/220
f 221/234/221 234/248/221 222/235/221
f 234/248/222 223/249/222 222/235/222
f 235/250/223 224/251/223 223/237/223
f 236/252/224 225/239/224 224/251/224
f 237/253/225 226/241/225 225/239/225
f 238/254/226 227/255/226 226/241/226
f 239/256/227 228/242/227 227/255/227
f 240/257/228 217/244/228 228/242/228
f 229/243/229 242/258/229 230/245/229
f 242/258/230 231/259/230 230/245/230
f 231/259/231 244/260/231 232/246/231
f 244/260/232 233/261/232 232/246/232
f 245/262/233 234/248/233 233/261/233
f 246/263/234 235/264/234 234/248/234
f 247/265/235 236/252/235 235/250/235
f 248/266/236 237/253/236 236/252/236
f 249/267/237 238/254/237 237/253/237
f 250/268/238 239/256/238 238/254/238
f 251/269/239 240/257/239 239/256/239
f 252/270/240 229/243/240 240/257/240
f 253/271/241 242/258/241 241/272/241
f 254/273/242 243/274/242 242/258/242
f 243/274/243 256/275/243 244/260/243
f 244/260/244 257/276/244 245/262/244
f 245/262/245 258/277/245 246/263/245
f 258/277/246 247/278/246 246/263/246
f 259/279/247 248/266/247 247/265/247
f 260/280/248 249/267/248 248/266/248
f 261/281/249 250/268/249 249/267/249
f 262/282/250 251/269/250 250/268/250
f 251/269/251 264/283/251 252/270/251
f 264/283/252 241/272/252 252/270/252
f 265/284/253 254/273/253 253/271/253
f 254/273/254 267/285/254 255/286/254
f 267/285/255 256/275/255 255/286/255
f 268/287/256 257/276/256 256/275/256
f 269/288/257 258/277/257 257/276/257
f 270/289/258 259/290/258 258/277/258
f 271/291/259 260/280/259 259/279/259
f 272/292/260 261/281/260 260/280/260
f 273/293/261 262/282/261 261/281/261
f 274/294/262 263/295/262 262/282/262
f 275/296/263 264/283/263 263/295/263
f 276/297/264 253/271/264 264/283/264
f 277/298/265 266/299/265 265/284/265
f 278/300/266 267/285/266 266/299/266
f 279/301/267 268/287/267 267/285/267
f 280/302/268 269/288/268 268/287/268
f 281/303/269 270/289/269 269/288/269
f 282/304/270 271/305/270 270/289/270
f 283/306/271 272/292/271 271/291/271
f 284/307/272 273/293/272 272/292/272
f 285/308/273 274/294/273 273/293/273
f 274/294/274 287/309/274 275/296/274
f 275/296/275 288/310/275 276/297/275
f 288/310/276 265/284/276 276/297/276
f 277/298/277 290/311/277 278/300/277
f 278/300/278 291/312/278 279/301/278
f 291/312/279 280/302/279 279/301/279
f 280/302/280 293/313/280 281/303/280
f 281/303/281 294/314/281 282/304/281
f 294/314/282 283/315/282 282/304/282
f 295/316/283 284/307/283 283/306/283
f 296/317/284 285/308/284 284/307/284
f 285/308/285 298/318/285 286/319/285
f 298/318/286 287/309/286 286/319/286
f 299/320/287 288/310/287 287/309/287
f 300/321/288 277/298/288 288/310/288
f 301/322/6 290/323/6 289/324/6
f 302/325/5 291/326/5 290/323/5
f 303/327/4 292/328/4 291/326/4
f 292/328/3 305/329/3 293/330/3
f 305/329/2 294/331/2 293/330/2
f 306/332/1 295/333/1 294/331/1
f 295/334/12 308/335/12 296/336/12
f 296/336/11 309/337/11 297/338/11
f 309/337/10 298/339/10 297/338/10
f 310/340/9 299/341/9 298/339/9
f 299/341/8 312/342/8 300/343/8
f 300/343/7 301/322/7 289/324/7
f 301/322/18 314/344/18 302/325/18
f 302/325/17 315/345/17 303/327/17
f 303/327/16 316/346/16 304/347/16
f 316/346/15 305/329/15 304/347/15
f 317/348/14 306/332/14 305/329/14
f 318/349/13 307/350/13 306/332/13
f 319/351/24 308/335/24 307/352/24
f 320/353/23 309/337/23 308/335/23
f 321/354/22 310/340/22 309/337/22
f 322/355/21 311/356/21 310/340/21
f 323/357/20 312/342/20 311/356/20
f 324/358/19 301/322/19 312/342/19
f 313/359/30 326/360/30 314/344/30
f 314/344/29 327/361/29 315/345/29
f 327/361/28 316/346/28 315/345/28
f 328/362/27 317/348/27 316/346/27
f 329/363/26 318/349/26 317/348/26
f 330/364/25 319/365/25 318/349/25
f 331/366/36 320/353/36 319/351/36
f 332/367/35 321/354/35 320/353/35
f 333/368/34 322/355/34 321/354/34
f 334/369/33 323/357/33 322/355/33
f 335/370/32 324/358/32 323/357/32
f 336/371/31 313/359/31 324/358/31
f 337/372/42 326/360/42 325/373/42
f 338/374/41 327/361/41 326/360/41
f 339/375/40 328/362/40 327/361/40
f 340/376/39 329/363/39 328/362/39
f 341/377/38 330/364/38 329/363/38
f 342/378/37 331/379/37 330/364/37
f 343/380/48 332/367/48 331/366/48
f 332/367/47 345/381/47 333/368/47
f 333/368/46 346/382/46 334/369/46
f 334/369/45 347/383/45 335/370/45
f 335/370/44 348/384/44 336/371/44
f 348/384/43 325/373/43 336/371/43
f 349/385/54 338/374/54 337/372/54
f 350/386/53 339/375/53 338/374/53
f 351/387/52 340/376/52 339/375/52
f 352/388/51 341/377/51 340/376/51
f 341/377/50 354/389/50 342/378/50
f 354/389/49 343/390/49 342/378/49
f 355/391/60 344/392/60 343/380/60
f 356/393/59 345/381/59 344/392/59
f 357/394/58 346/382/58 345/381/58
f 346/382/57 359/395/57 347/383/57
f 347/383/56 360/396/56 348/384/56
f 360/396/55 337/372/55 348/384/55
f 361/397/66 350/386/66 349/385/66
f 362/398/65 351/387/65 350/386/65
f 363/399/64 352/388/64 351/387/64
f 364/400/63 353/401/63 352/388/63
f 365/402/62 354/389/62 353/401/62
f 366/403/61 355/404/61 354/389/61
f 367/405/72 356/393/72 355/391/72
f 356/393/71 369/406/71 357/394/71
f 369/406/70 358/407/70 357/394/70
f 358/407/69 371/408/69 359/395/69
f 371/408/68 360/396/68 359/395/68
f 372/409/67 349/385/67 360/396/67
f 373/410/78 362/398/78 361/397/78
f 374/411/77 363/399/77 362/398/77
f 375/412/76 364/400/76 363/399/76
f 376/413/75 365/402/75 364/400/75
f 377/414/74 366/403/74 365/402/74
f 378/415/73 367/416/73 366/403/73
f 379/417/84 368/418/84 367/405/84
f 380/419/83 369/406/83 368/418/83
f 381/420/82 370/421/82 369/406/82
f 382/422/81 371/408/81 370/421/81
f 383/423/80 372/409/80 371/408/80
f 384/424/79 361/397/79 372/409/79
f 385/425/90 374/411/90 373/410/90
f 374/411/89 387/426/89 375/412/89
f 375/412/88 388/427/88 376/413/88
f 376/413/87 389/428/87 377/414/87
f 389/428/86 378/415/86 377/414/86
f 390/429/85 379/430/85 378/415/85
f 391/431/96 380/419/96 379/417/96
f 380/419/95 393/432/95 381/420/95
f 381/420/94 394/433/94 382/422/94
f 394/433/93 383/423/93 382/422/93
f 395/434/92 384/424/92 383/423/92
f 396/435/91 373/410/91 384/424/91
f 397/436/102 386/437/102 385/425/102
f 398/438/101 387/426/101 386/437/101
f 387/426/100 400/439/100 388/427/100
f 400/439/99 389/428/99 388/427/99
f 401/440/98 390/429/98 389/428/98
f 402/441/97 391/442/97 390/429/97
f 403/443/108 392/444/108 391/431/108
f 404/445/107 393/432/107 392/444/107
f 405/446/106 394/433/106 393/432/106
f 406/447/105 395/434/105 394/433/105
f 407/448/104 396/435/104 395/434/104
f 396/435/103 397/436/103 385/425/103
f 397/436/114 410/449/114 398/438/114
f 410/449/113 399/450/113 398/438/113
f 399/450/112 412/451/112 400/439/112
f 412/451/111 401/440/111 400/439/111
f 413/452/110 402/441/110 401/440/110
f 402/441/109 415/453/109 403/454/109
f 415/455/120 404/445/120 403/443/120
f 416/456/119 405/446/119 404/445/119
f 417/457/118 406/447/118 405/446/118
f 418/458/117 407/448/117 406/447/117
f 407/448/116 420/459/116 408/460/116
f 420/459/115 397/436/115 408/460/115
f 421/461/126 410/449/126 409/462/126
f 422/463/125 411/464/125 410/449/125
f 423/465/124 412/451/124 411/464/124
f 424/466/123 413/452/123 412/451/123
f 425/467/122 414/468/122 413/452/122
f 426/469/121 415/453/121 414/468/121
f 427/470/132 416/456/132 415/455/132
f 428/471/131 417/457/131 416/456/131
f 429/472/130 418/458/130 417/457/130
f 418/458/129 431/473/129 419/474/129
f 431/473/128 420/459/128 419/474/128
f 432/475/127 409/462/127 420/459/127
f 433/476/138 422/463/138 421/461/138
f 434/477/137 423/465/137 422/463/137
f 435/478/136 424/466/136 423/465/136
f 424/466/135 437/479/135 425/467/135
f 437/479/134 426/469/134 425/467/134
f 438/480/133 427/481/133 426/469/133
f 439/482/144 428/471/144 427/470/144
f 440/483/143 429/472/143 428/471/143
f 441/484/142 430/485/142 429/472/142
f 442/486/141 431/473/141 430/485/141
f 443/487/140 432/475/140 431/473/140
f 444/488/139 421/461/139 432/475/139
f 445/489/150 434/477/150 433/476/150
f 434/477/149 447/490/149 435/478/149
f 447/490/148 436/491/148 435/478/148
f 448/492/147 437/479/147 436/491/147
f 449/493/146 438/480/146 437/479/146
f 450/494/145 439/495/145 438/480/145
f 451/496/156 440/483/156 439/482/156
f 452/497/155 441/484/155 440/483/155
f 453/498/154 442/486/154 441/484/154
f 454/499/153 443/487/153 442/486/153
f 455/500/152 444/488/152 443/487/152
f 456/501/151 433/476/151 444/488/151
f 457/502/162 446/503/162 445/489/162
f 458/504/161 447/490/161 446/503/161
f 459/505/160 448/492/160 447/490/160
f 460/506/159 449/493/159 448/492/159
f 449/493/158 462/507/158 450/494/158
f 450/494/157 463/508/157 451/509/157
f 463/510/168 452/497/168 451/496/168
f 452/497/167 465/511/167 453/498/167
f 453/498/166 466/512/166 454/499/166
f 454/499/165 467/513/165 455/500/165
f 455/500/164 468/514/164 456/501/164
f 456/501/163 457/502/163 445/489/163
f 469/515/174 458/504/174 457/502/174
f 470/516/173 459/505/173 458/504/173
f 459/505/172 472/517/172 460/506/172
f 472/517/171 461/518/171 460/506/171
f 473/519/170 462/507/170 461/518/170
f 474/520/169 463/508/169 462/507/169
f 475/521/180 464/522/180 463/510/180
f 476/523/179 465/511/179 464/522/179
f 477/524/178 466/512/178 465/511/178
f 478/525/177 467/513/177 466/512/177
f 479/526/176 468/514/176 467/513/176
f 468/514/175 469/515/175 457/502/175
f 481/527/186 470/516/186 469/515/186
f 470/516/185 483/528/185 471/529/185
f 483/528/184 472/517/184 471/529/184
f 484/530/183 473/519/183 472/517/183
f 485/531/182 474/520/182 473/519/182
f 474/520/181 487/532/181 475/533/181
f 487/534/192 476/523/192 475/521/192
f 476/523/191 489/535/191 477/524/191
f 489/535/190 478/525/190 477/524/190
f 490/536/189 479/526/189 478/525/189
f 491/537/188 480/538/188 479/526/188
f 492/539/187 469/515/187 480/538/187
f 481/527/198 494/540/198 482/541/198
f 494/540/197 483/528/197 482/541/197
f 495/542/196 484/530/196 483/528/196
f 496/543/195 485/531/195 484/530/195
f 497/544/194 486/545/194 485/531/194
f 498/546/193 487/532/193 486/545/193
f 487/534/204 500/547/204 488/548/204
f 488/548/203 501/549/203 489/535/203
f 489/535/202 502/550/202 490/536/202
f 490/536/201 503/551/201 491/537/201
f 503/551/200 492/539/200 491/537/200
f 504/552/199 481/527/199 492/539/199
f 493/553/210 506/554/210 494/540/210
f 506/554/209 495/542/209 494/540/209
f 507/555/208 496/543/208 495/542/208
f 496/543/207 509/556/207 497/544/207
f 497/544/206 510/557/206 498/546/206
f 498/546/205 511/558/205 499/559/205
f 511/560/216 500/547/216 499/561/216
f 512/562/215 501/549/215 500/547/215
f 513/563/214 502/550/214 501/549/214
f 514/564/213 503/551/213 502/550/213
f 503/551/212 516/565/212 504/552/212
f 516/565/211 493/553/211 504/552/211
f 517/566/222 506/554/222 505/567/222
f 518/568/221 507/555/221 506/554/221
f 519/569/220 508/570/220 507/555/220
f 508/570/219 521/571/219 509/556/219
f 521/571/218 510/557/218 509/556/218
f 510/557/217 523/572/217 511/558/217
f 511/560/228 524/573/228 512/562/228
f 512/562/227 525/574/227 513/563/227
f 525/574/226 514/564/226 513/563/226
f 526/575/225 515/576/225 514/564/225
f 515/576/224 528/577/224 516/565/224
f 528/577/223 505/567/223 516/565/223
f 517/566/234 530/578/234 518/568/234
f 518/568/233 531/579/233 519/569/233
f 519/569/232 532/580/232 520/581/232
f 532/580/231 521/571/231 520/581/231
f 533/582/230 522/583/230 521/571/230
f 522/583/229 535/584/229 523/572/229
f 535/585/240 524/573/240 523/586/240
f 536/587/239 525/574/239 524/573/239
f 525/574/238 538/588/238 526/575/238
f 538/588/237 527/589/237 526/575/237
f 527/589/236 540/590/236 528/577/236
f 540/590/235 517/566/235 528/577/235
f 541/591/246 530/578/246 529/592/246
f 542/593/245 531/579/245 530/578/245
f 531/579/244 544/594/244 532/580/244
f 544/594/243 533/582/243 532/580/243
f 533/582/242 546/595/242 534/596/242
f 546/595/241 535/584/241 534/596/241
f 547/597/252 536/587/252 535/585/252
f 548/598/251 537/599/251 536/587/251
f 549/600/250 538/588/250 537/599/250
f 550/601/249 539/602/249 538/588/249
f 551/603/248 540/590/248 539/602/248
f 552/604/247 529/592/247 540/590/247
f 553/605/258 542/593/258 541/591/258
f 554/606/257 543/607/257 542/593/257
f 555/608/256 544/594/256 543/607/256
f 556/609/255 545/610/255 544/594/255
f 557/611/254 546/595/254 545/610/254
f 558/612/253 547/613/253 546/595/253
f 559/614/264 548/598/264 547/597/264
f 560/615/263 549/600/263 548/598/263
f 561/616/262 550/601/262 549/600/262
f 562/617/261 551/603/261 550/601/261
f 563/618/260 552/604/260 551/603/260
f 564/619/259 541/591/259 552/604/259
f 565/620/270 554/606/270 553/605/270
f 554/606/269 567/621/269 555/608/269
f 567/621/268 556/609/268 555/608/268
f 556/609/267 569/622/267 557/611/267
f 557/611/266 570/623/266 558/612/266
f 558/612/265 571/624/265 559/625/265
f 571/626/276 560/615/276 559/614/276
f 572/627/275 561/616/275 560/615/275
f 573/628/274 562/617/274 561/616/274
f 562/617/273 575/629/273 563/618/273
f 575/629/272 564/619/272 563/618/272
f 576/630/271 553/605/271 564/619/271
f 1/3/282 566/631/282 565/620/282
f 2/2/281 567/621/281 566/631/281
f 3/5/280 568/632/280 567/621/280
f 4/7/279 569/622/279 568/632/279
f 5/8/278 570/623/278 569/622/278
f 6/10/277 571/624/277 570/623/277
f 571/626/288 8/15/288 572/627/288
f 8/15/287 573/628/287 572/627/287
f 573/628/286 10/18/286 574/633/286
f 574/633/285 11/20/285 575/629/285
f 575/629/284 12/22/284 576/630/284
f 576/630/283 1/3/283 565/620/283
f 13/1/1 14/4/1 2/2/1
f 14/4/2 15/24/2 3/5/2
f 3/5/3 15/24/3 16/6/3
f 16/6/4 17/9/4 5/8/4
f 17/9/5 18/11/5 6/10/5
f 18/11/6 19/28/6 7/12/6
f 7/13/7 19/30/7 20/14/7
f 20/14/8 21/17/8 9/16/8
f 21/17/9 22/19/9 10/18/9
f 22/19/10 23/21/10 11/20/10
f 23/21/11 24/34/11 12/22/11
f 12/22/12 24/34/12 13/1/12
f 13/1/13 25/36/13 26/23/13
f 26/23/14 27/38/14 15/24/14
f 15/24/15 27/38/15 28/25/15
f 28/25/16 29/26/16 17/9/16
f 29/26/17 30/41/17 18/11/17
f 18/11/18 30/41/18 31/27/18
f 31/29/19 32/31/19 20/14/19
f 32/31/20 33/45/20 21/17/20
f 21/17/21 33/45/21 34/32/21
f 34/32/22 35/48/22 23/21/22
f 23/21/23 35/48/23 36/33/23
f 36/33/24 25/36/24 13/1/24
f 37/35/25 38/51/25 26/23/25
f 26/23/26 38/51/26 39/37/26
f 39/37/27 40/39/27 28/25/27
f 40/39/28 41/40/28 29/26/28
f 41/40/29 42/42/29 30/41/29
f 42/42/30 43/55/30 31/27/30
f 43/43/31 44/44/31 32/31/31
f 44/44/32 45/46/32 33/45/32
f 45/46/33 46/59/33 34/32/33
f 34/32/34 46/59/34 47/47/34
f 47/47/35 48/49/35 36/33/35
f 48/49/36 37/35/36 25/36/36
f 37/35/37 49/62/37 50/50/37
f 50/50/38 51/52/38 39/37/38
f 51/52/39 52/53/39 40/39/39
f 52/53/40 53/66/40 41/40/40
f 41/40/41 53/66/41 54/54/41
f 54/54/42 55/68/42 43/55/42
f 55/56/43 56/57/43 44/44/43
f 56/57/44 57/70/44 45/46/44
f 45/46/45 57/70/45 58/58/45
f 58/58/46 59/73/46 47/47/46
f 47/47/47 59/73/47 60/60/47
f 60/60/48 49/62/48 37/35/48
f 61/61/49 62/63/49 50/50/49
f 62/63/50 63/64/50 51/52/50
f 63/64/51 64/76/51 52/53/51
f 52/53/52 64/76/52 65/65/52
f 65/65/53 66/67/53 54/54/53
f 66/67/54 67/79/54 55/68/54
f 55/56/55 67/81/55 68/69/55
f 68/69/56 69/71/56 57/70/56
f 69/71/57 70/84/57 58/58/57
f 58/58/58 70/84/58 71/72/58
f 71/72/59 72/86/59 60/60/59
f 60/60/60 72/86/60 61/61/60
f 73/74/61 74/88/61 62/63/61
f 62/63/62 74/88/62 75/75/62
f 75/75/63 76/77/63 64/76/63
f 76/77/64 77/91/64 65/65/64
f 65/65/65 77/91/65 78/78/65
f 78/78/66 79/94/66 67/79/66
f 79/80/67 80/96/67 68/69/67
f 68/69/68 80/96/68 81/82/68
f 69/71/69 81/82/69 82/83/69
f 82/83/70 83/99/70 71/72/70
f 71/72/71 83/99/71 84/85/71
f 72/86/72 84/85/72 73/74/72
f 85/87/73 86/102/73 74/88/73
f 74/88/74 86/102/74 87/89/74
f 87/89/75 88/90/75 76/77/75
f 88/90/76 89/92/76 77/91/76
f 89/92/77 90/93/77 78/78/77
f 90/93/78 91/108/78 79/94/78
f 91/95/79 92/110/79 80/96/79
f 80/96/80 92/110/80 93/97/80
f 93/97/81 94/98/81 82/83/81
f 94/98/82 95/100/82 83/99/82
f 95/100/83 96/115/83 84/85/83
f 84/85/84 96/115/84 85/87/84
f 97/101/85 98/103/85 86/102/85
f 98/103/86 99/118/86 87/89/86
f 87/89/87 99/118/87 100/104/87
f 88/90/88 100/104/88 101/105/88
f 89/92/89 101/105/89 102/106/89
f 90/93/90 102/106/90 103/107/90
f 103/109/91 104/111/91 92/110/91
f 104/111/92 105/112/92 93/97/92
f 105/112/93 106/113/93 94/98/93
f 106/113/94 107/114/94 95/100/94
f 107/114/95 108/116/95 96/115/95
f 108/116/96 97/101/96 85/87/96
f 97/101/97 109/128/97 110/117/97
f 110/117/98 111/119/98 99/118/98
f 111/119/99 112/120/99 100/104/99
f 112/120/100 113/121/100 101/105/100
f 113/121/101 114/122/101 102/106/101
f 114/122/102 115/133/102 103/107/102
f 103/109/103 115/135/103 116/123/103
f 116/123/104 117/124/104 105/112/104
f 117/124/105 118/138/105 106/113/105
f 106/113/106 118/138/106 119/125/106
f 107/114/107 119/125/107 120/126/107
f 120/126/108 109/128/108 97/101/108
f 121/127/109 122/143/109 110/117/109
f 110/117/110 122/143/110 123/129/110
f 111/119/111 123/129/111 124/130/111
f 112/120/112 124/130/112 125/131/112
f 113/121/113 125/131/113 126/132/113
f 126/132/114 127/147/114 115/133/114
f 127/134/115 128/136/115 116/123/115
f 128/136/116 129/137/116 117/124/116
f 129/137/117 130/139/117 118/138/117
f 130/139/118 131/140/118 119/125/118
f 131/140/119 132/141/119 120/126/119
f 132/141/120 121/127/120 109/128/120
f 121/127/121 133/154/121 134/142/121
f 134/142/122 135/156/122 123/129/122
f 123/129/123 135/156/123 136/144/123
f 124/130/124 136/144/124 137/145/124
f 137/145/125 138/146/125 126/132/125
f 138/146/126 139/160/126 127/147/126
f 139/148/127 140/149/127 128/136/127
f 140/149/128 141/163/128 129/137/128
f 129/137/129 141/163/129 142/150/129
f 142/150/130 143/151/130 131/140/130
f 143/151/131 144/152/131 132/141/131
f 144/152/132 133/154/132 121/127/132
f 145/153/133 146/155/133 134/142/133
f 146/155/134 147/169/134 135/156/134
f 135/156/135 147/169/135 148/157/135
f 148/157/136 149/158/136 137/145/136
f 149/158/137 150/173/137 138/146/137
f 138/146/138 150/173/138 151/159/138
f 151/161/139 152/162/139 140/149/139
f 152/162/140 153/164/140 141/163/140
f 153/164/141 154/177/141 142/150/141
f 142/150/142 154/177/142 155/165/142
f 143/151/143 155/165/143 156/166/143
f 156/166/144 145/153/144 133/154/144
f 157/167/145 158/168/145 146/155/145
f 158/168/146 159/170/146 147/169/146
f 159/170/147 160/171/147 148/157/147
f 160/171/148 161/183/148 149/158/148
f 149/158/149 161/183/149 162/172/149
f 162/172/150 163/186/150 151/159/150
f 163/174/151 164/175/151 152/162/151
f 164/175/152 165/176/152 153/164/152
f 165/176/153 166/178/153 154/177/153
f 166/178/154 167/191/154 155/165/154
f 155/165/155 167/191/155 168/179/155
f 168/179/156 157/167/156 145/153/156
f 157/167/157 169/194/157 170/180/157
f 170/180/158 171/181/158 159/170/158
f 171/181/159 172/182/159 160/171/159
f 172/182/160 173/184/160 161/183/160
f 173/184/161 174/185/161 162/172/161
f 174/185/162 175/200/162 163/186/162
f 175/187/163 176/188/163 164/175/163
f 176/188/164 177/189/164 165/176/164
f 177/189/165 178/190/165 166/178/165
f 178/190/166 179/192/166 167/191/166
f 179/192/167 180/193/167 168/179/167
f 180/193/168 169/194/168 157/167/168
f 169/194/169 181/204/169 182/195/169
f 182/195/170 183/196/170 171/181/170
f 183/196/171 184/197/171 172/182/171
f 184/197/172 185/198/172 173/184/172
f 185/198/173 186/199/173 174/185/173
f 186/199/174 187/210/174 175/200/174
f 175/187/175 187/212/175 188/201/175
f 188/201/176 189/214/176 177/189/176
f 177/189/177 189/214/177 190/202/177
f 190/202/178 191/217/178 179/192/178
f 179/192/179 191/217/179 192/203/179
f 192/203/180 181/204/180 169/194/180
f 181/204/181 193/218/181 194/205/181
f 194/205/182 195/206/182 183/196/182
f 195/206/183 196/207/183 184/197/183
f 196/207/184 197/208/184 185/198/184
f 197/208/185 198/209/185 186/199/185
f 198/209/186 199/225/186 187/210/186
f 199/211/187 200/213/187 188/201/187
f 200/213/188 201/215/188 189/214/188
f 201/215/189 202/228/189 190/202/189
f 190/202/190 202/228/190 203/216/190
f 203/216/191 204/231/191 192/203/191
f 192/203/192 204/231/192 193/218/192
f 205/219/193 206/220/193 194/205/193
f 206/220/194 207/221/194 195/206/194
f 207/221/195 208/222/195 196/207/195
f 208/222/196 209/223/196 197/208/196
f 209/223/197 210/224/197 198/209/197
f 210/224/198 211/236/198 199/225/198
f 211/226/199 212/238/199 200/213/199
f 200/213/200 212/238/200 213/227/200
f 213/227/201 214/240/201 202/228/201
f 202/228/202 214/240/202 215/229/202
f 203/216/203 215/229/203 216/230/203
f 204/231/204 216/230/204 205/219/204
f 205/219/205 217/244/205 218/232/205
f 218/232/206 219/233/206 207/221/206
f 219/233/207 220/247/207 208/222/207
f 208/222/208 220/247/208 221/234/208
f 221/234/209 222/235/209 210/224/209
f 222/235/210 223/249/210 211/236/210
f 223/237/211 224/251/211 212/238/211
f 212/238/212 224/251/212 225/239/212
f 225/239/213 226/241/213 214/240/213
f 226/241/214 227/255/214 215/229/214
f 215/229/215 227/255/215 228/242/215
f 228/242/216 217/244/216 205/219/216
f 229/243/217 230/245/217 218/232/217
f 230/245/218 231/259/218 219/233/218
f 219/233/219 231/259/219 232/246/219
f 232/246/220 233/261/220 221/234/220
f 221/234/221 233/261/221 234/248/221
f 234/248/222 235/264/222 223/249/222
f 235/250/223 236/252/223 224/251/223
f 236/252/224 237/253/224 225/239/224
f 237/253/225 238/254/225 226/241/225
f 238/254/226 239/256/226 227/255/226
f 239/256/227 240/257/227 228/242/227
f 240/257/228 229/243/228 217/244/228
f 229/243/229 241/272/229 242/258/229
f 242/258/230 243/274/230 231/259/230
f 231/259/231 243/274/231 244/260/231
f 244/260/232 245/262/232 233/261/232
f 245/262/233 246/263/233 234/248/233
f 246/263/234 247/278/234 235/264/234
f 247/265/235 248/266/235 236/252/235
f 248/266/236 249/267/236 237/253/236
f 249/267/237 250/268/237 238/254/237
f 250/268/238 251/269/238 239/256/238
f 251/269/239 252/270/239 240/257/239
f 252/270/240 241/272/240 229/243/240
f 253/271/241 254/273/241 242/258/241
f 254/273/242 255/286/242 243/274/242
f 243/274/243 255/286/243 256/275/243
f 244/260/244 256/275/244 257/276/244
f 245/262/245 257/276/245 258/277/245
f 258/277/246 259/290/246 247/278/246
f 259/279/247 260/280/247 248/266/247
f 260/280/248 261/281/248 249/267/248
f 261/281/249 262/282/249 250/268/249
f 262/282/250 263/295/250 251/269/250
f 251/269/251 263/295/251 264/283/251
f 264/283/252 253/271/252 241/272/252
f 265/284/253 266/299/253 254/273/253
f 254/273/254 266/299/254 267/285/254
f 267/285/255 268/287/255 256/275/255
f 268/287/256 269/288/256 257/276/256
f 269/288/257 270/289/257 258/277/257
f 270/289/258 271/305/258 259/290/258
f 271/291/259 272/292/259 260/280/259
f 272/292/260 273/293/260 261/281/260
f 273/293/261 274/294/261 262/282/261
f 274/294/262 275/296/262 263/295/262
f 275/296/263 276/297/263 264/283/263
f 276/297/264 265/284/264 253/271/264
f 277/298/265 278/300/265 266/299/265
f 278/300/266 279/301/266 267/285/266
f 279/301/267 280/302/267 268/287/267
f 280/302/268 281/303/268 269/288/268
f 281/303/269 282/304/269 270/289/269
f 282/304/270 283/315/270 271/305/270
f 283/306/271 284/307/271 272/292/271
f 284/307/272 285/308/272 273/293/272
f 285/308/273 286/319/273 274/294/273
f 274/294/274 286/319/274 287/309/274
f 275/296/275 287/309/275 288/310/275
f 288/310/276 277/298/276 265/284/276
f 277/298/277 289/634/277 290/311/277
f 278/300/278 290/311/278 291/312/278
f 291/312/279 292/635/279 280/302/279
f 280/302/280 292/635/280 293/313/280
f 281/303/281 293/313/281 294/314/281
f 294/314/282 295/636/282 283/315/282
f 295/316/283 296/317/283 284/307/283
f 296/317/284 297/637/284 285/308/284
f 285/308/285 297/637/285 298/318/285
f 298/318/286 299/320/286 287/309/286
f 299/320/287 300/321/287 288/310/287
f 300/321/288 289/634/288 277/298/288
f 301/322/6 302/325/6 290/323/6
f 302/325/5 303/327/5 291/326/5
f 303/327/4 304/347/4 292/328/4
f 292/328/3 304/347/3 305/329/3
f 305/329/2 306/332/2 294/331/2
f 306/332/1 307/350/1 295/333/1
f 295/334/12 307/352/12 308/335/12
f 296/336/11 308/335/11 309/337/11
f 309/337/10 310/340/10 298/339/10
f 310/340/9 311/356/9 299/341/9
f 299/341/8 311/356/8 312/342/8
f 300/343/7 312/342/7 301/322/7
f 301/322/18 313/359/18 314/344/18
f 302/325/17 314/344/17 315/345/17
f 303/327/16 315/345/16 316/346/16
f 316/346/15 317/348/15 305/329/15
f 317/348/14 318/349/14 306/332/14
f 318/349/13 319/365/13 307/350/13
f 319/351/24 320/353/24 308/335/24
f 320/353/23 321/354/23 309/337/23
f 321/354/22 322/355/22 310/340/22
f 322/355/21 323/357/21 311/356/21
f 323/357/20 324/358/20 312/342/20
f 324/358/19 313/359/19 301/322/19
f 313/359/30 325/373/30 326/360/30
f 314/344/29 326/360/29 327/361/29
f 327/361/28 328/362/28 316/346/28
f 328/362/27 329/363/27 317/348/27
f 329/363/26 330/364/26 318/349/26
f 330/364/25 331/379/25 319/365/25
f 331/366/36 332/367/36 320/353/36
f 332/367/35 333/368/35 321/354/35
f 333/368/34 334/369/34 322/355/34
f 334/369/33 335/370/33 323/357/33
f 335/370/32 336/371/32 324/358/32
f 336/371/31 325/373/31 313/359/31
f 337/372/42 338/374/42 326/360/42
f 338/374/41 339/375/41 327/361/41
f 339/375/40 340/376/40 328/362/40
f 340/376/39 341/377/39 329/363/39
f 341/377/38 342/378/38 330/364/38
f 342/378/37 343/390/37 331/379/37
f 343/380/48 344/392/48 332/367/48
f 332/367/47 344/392/47 345/381/47
f 333/368/46 345/381/46 346/382/46
f 334/369/45 346/382/45 347/383/45
f 335/370/44 347/383/44 348/384/44
f 348/384/43 337/372/43 325/373/43
f 349/385/54 350/386/54 338/374/54
f 350/386/53 351/387/53 339/375/53
f 351/387/52 352/388/52 340/376/52
f 352/388/51 353/401/51 341/377/51
f 341/377/50 353/401/50 354/389/50
f 354/389/49 355/404/49 343/390/49
f 355/391/60 356/393/60 344/392/60
f 356/393/59 357/394/59 345/381/59
f 357/394/58 358/407/58 346/382/58
f 346/382/57 358/407/57 359/395/57
f 347/383/56 359/395/56 360/396/56
f 360/396/55 349/385/55 337/372/55
f 361/397/66 362/398/66 350/386/66
f 362/398/65 363/399/65 351/387/65
f 363/399/64 364/400/64 352/388/64
f 364/400/63 365/402/63 353/401/63
f 365/402/62 366/403/62 354/389/62
f 366/403/61 367/416/61 355/404/61
f 367/405/72 368/418/72 356/393/72
f 356/393/71 368/418/71 369/406/71
f 369/406/70 370/421/70 358/407/70
f 358/407/69 370/421/69 371/408/69
f 371/408/68 372/409/68 360/396/68
f 372/409/67 361/397/67 349/385/67
f 373/410/78 374/411/78 362/398/78
f 374/411/77 375/412/77 363/399/77
f 375/412/76 376/413/76 364/400/76
f 376/413/75 377/414/75 365/402/75
f 377/414/74 378/415/74 366/403/74
f 378/415/73 379/430/73 367/416/73
f 379/417/84 380/419/84 368/418/84
f 380/419/83 381/420/83 369/406/83
f 381/420/82 382/422/82 370/421/82
f 382/422/81 383/423/81 371/408/81
f 383/423/80 384/424/80 372/409/80
f 384/424/79 373/410/79 361/397/79
f 385/425/90 386/437/90 374/411/90
f 374/411/89 386/437/89 387/426/89
f 375/412/88 387/426/88 388/427/88
f 376/413/87 388/427/87 389/428/87
f 389/428/86 390/429/86 378/415/86
f 390/429/85 391/442/85 379/430/85
f 391/431/96 392/444/96 380/419/96
f 380/419/95 392/444/95 393/432/95
f 381/420/94 393/432/94 394/433/94
f 394/433/93 395/434/93 383/423/93
f 395/434/92 396/435/92 384/424/92
f 396/435/91 385/425/91 373/410/91
f 397/436/102 398/438/102 386/437/102
f 398/438/101 399/450/101 387/426/101
f 387/426/100 399/450/100 400/439/100
f 400/439/99 401/440/99 389/428/99
f 401/440/98 402/441/98 390/429/98
f 402/441/97 403/454/97 391/442/97
f 403/443/108 404/445/108 392/444/108
f 404/445/107 405/446/107 393/432/107
f 405/446/106 406/447/106 394/433/106
f 406/447/105 407/448/105 395/434/105
f 407/448/104 408/460/104 396/435/104
f 396/435/103 408/460/103 397/436/103
f 397/436/114 409/462/114 410/449/114
f 410/449/113 411/464/113 399/450/113
f 399/450/112 411/464/112 412/451/112
f 412/451/111 413/452/111 401/440/111
f 413/452/110 414/468/110 402/441/110
f 402/441/109 414/468/109 415/453/109
f 415/455/120 416/456/120 404/445/120
f 416/456/119 417/457/119 405/446/119
f 417/457/118 418/458/118 406/447/118
f 418/458/117 419/474/117 407/448/117
f 407/448/116 419/474/116 420/459/116
f 420/459/115 409/462/115 397/436/115
f 421/461/126 422/463/126 410/449/126
f 422/463/125 423/465/125 411/464/125
f 423/465/124 424/466/124 412/451/124
f 424/466/123 425/467/123 413/452/123
f 425/467/122 426/469/122 414/468/122
f 426/469/121 427/481/121 415/453/121
f 427/470/132 428/471/132 416/456/132
f 428/471/131 429/472/131 417/457/131
f 429/472/130 430/485/130 418/458/130
f 418/458/129 430/485/129 431/473/129
f 431/473/128 432/475/128 420/459/128
f 432/475/127 421/461/127 409/462/127
f 433/476/138 434/477/138 422/463/138
f 434/477/137 435/478/137 423/465/137
f 435/478/136 436/491/136 424/466/136
f 424/466/135 436/491/135 437/479/135
f 437/479/134 438/480/134 426/469/134
f 438/480/133 439/495/133 427/481/133
f 439/482/144 440/483/144 428/471/144
f 440/483/143 441/484/143 429/472/143
f 441/484/142 442/486/142 430/485/142
f 442/486/141 443/487/141 431/473/141
f 443/487/140 444/488/140 432/475/140
f 444/488/139 433/476/139 421/461/139
f 445/489/150 446/503/150 434/477/150
f 434/477/149 446/503/149 447/490/149
f 447/490/148 448/492/148 436/491/148
f 448/492/147 449/493/147 437/479/147
f 449/493/146 450/494/146 438/480/146
f 450/494/145 451/509/145 439/495/145
f 451/496/156 452/497/156 440/483/156
f 452/497/155 453/498/155 441/484/155
f 453/498/154 454/499/154 442/486/154
f 454/499/153 455/500/153 443/487/153
f 455/500/152 456/501/152 444/488/152
f 456/501/151 445/489/151 433/476/151
f 457/502/162 458/504/162 446/503/162
f 458/504/161 459/505/161 447/490/161
f 459/505/160 460/506/160 448/492/160
f 460/506/159 461/518/159 449/493/159
f 449/493/158 461/518/158 462/507/158
f 450/494/157 462/507/157 463/508/157
f 463/510/168 464/522/168 452/497/168
f 452/497/167 464/522/167 465/511/167
f 453/498/166 465/511/166 466/512/166
f 454/499/165 466/512/165 467/513/165
f 455/500/164 467/513/164 468/514/164
f 456/501/163 468/514/163 457/502/163
f 469/515/174 470/516/174 458/504/174
f 470/516/173 471/529/173 459/505/173
f 459/505/172 471/529/172 472/517/172
f 472/517/171 473/519/171 461/518/171
f 473/519/170 474/520/170 462/507/170
f 474/520/169 475/533/169 463/508/169
f 475/521/180 476/523/180 464/522/180
f 476/523/179 477/524/179 465/511/179
f 477/524/178 478/525/178 466/512/178
f 478/525/177 479/526/177 467/513/177
f 479/526/176 480/538/176 468/514/176
f 468/514/175 480/538/175 469/515/175
f 481/527/186 482/541/186 470/516/186
f 470/516/185 482/541/185 483/528/185
f 483/528/184 484/530/184 472/517/184
f 484/530/183 485/531/183 473/519/183
f 485/531/182 486/545/182 474/520/182
f 474/520/181 486/545/181 487/532/181
f 487/534/192 488/548/192 476/523/192
f 476/523/191 488/548/191 489/535/191
f 489/535/190 490/536/190 478/525/190
f 490/536/189 491/537/189 479/526/189
f 491/537/188 492/539/188 480/538/188
f 492/539/187 481/527/187 469/515/187
f 481/527/198 493/553/198 494/540/198
f 494/540/197 495/542/197 483/528/197
f 495/542/196 496/543/196 484/530/196
f 496/543/195 497/544/195 485/531/195
f 497/544/194 498/546/194 486/545/194
f 498/546/193 499/559/193 487/532/193
f 487/534/204 499/561/204 500/547/204
f 488/548/203 500/547/203 501/549/203
f 489/535/202 501/549/202 502/550/202
f 490/536/201 502/550/201 503/551/201
f 503/551/200 504/552/200 492/539/200
f 504/552/199 493/553/199 481/527/199
f 493/553/210 505/567/210 506/554/210
f 506/554/209 507/555/209 495/542/209
f 507/555/208 508/570/208 496/543/208
f 496/543/207 508/570/207 509/556/207
f 497/544/206 509/556/206 510/557/206
f 498/546/205 510/557/205 511/558/205
f 511/560/216 512/562/216 500/547/216
f 512/562/215 513/563/215 501/549/215
f 513/563/214 514/564/214 502/550/214
f 514/564/213 515/576/213 503/551/213
f 503/551/212 515/576/212 516/565/212
f 516/565/211 505/567/211 493/553/211
f 517/566/222 518/568/222 506/554/222
f 518/568/221 519/569/221 507/555/221
f 519/569/220 520/581/220 508/570/220
f 508/570/219 520/581/219 521/571/219
f 521/571/218 522/583/218 510/557/218
f 510/557/217 522/583/217 523/572/217
f 511/560/228 523/586/228 524/573/228
f 512/562/227 524/573/227 525/574/227
f 525/574/226 526/575/226 514/564/226
f 526/575/225 527/589/225 515/576/225
f 515/576/224 527/589/224 528/577/224
f 528/577/223 517/566/223 505/567/223
f 517/566/234 529/592/234 530/578/234
f 518/568/233 530/578/233 531/579/233
f 519/569/232 531/579/232 532/580/232
f 532/580/231 533/582/231 521/571/231
f 533/582/230 534/596/230 522/583/230
f 522/583/229 534/596/229 535/584/229
f 535/585/240 536/587/240 524/573/240
f 536/587/239 537/599/239 525/574/239
f 525/574/238 537/599/238 538/588/238
f 538/588/237 539/602/237 527/589/237
f 527/589/236 539/602/236 540/590/236
f 540/590/235 529/592/235 517/566/235
f 541/591/246 542/593/246 530/578/246
f 542/593/245 543/607/245 531/579/245
f 531/579/244 543/607/244 544/594/244
f 544/594/243 545/610/243 533/582/243
f 533/582/242 545/610/242 546/595/242
f 546/595/241 547/613/241 535/584/241
f 547/597/252 548/598/252 536/587/252
f 548/598/251 549/600/251 537/599/251
f 549/600/250 550/601/250 538/588/250
f 550/601/249 551/603/249 539/602/249
f 551/603/248 552/604/248 540/590/248
f 552/604/247 541/591/247 529/592/247
f 553/605/258 554/606/258 542/593/258
f 554/606/257 555/608/257 543/607/257
f 555/608/256 556/609/256 544/594/256
f 556/609/255 557/611/255 545/610/255
f 557/611/254 558/612/254 546/595/254
f 558/612/253 559/625/253 547/613/253
f 559/614/264 560/615/264 548/598/264
f 560/615/263 561/616/263 549/600/263
f 561/616/262 562/617/262 550/601/262
f 562/617/261 563/618/261 551/603/261
f 563/618/260 564/619/260 552/604/260
f 564/619/259 553/605/259 541/591/259
f 565/620/270 566/631/270 554/606/270
f 554/606/269 566/631/269 567/621/269
f 567/621/268 568/632/268 556/609/268
f 556/609/267 568/632/267 569/622/267
f 557/611/266 569/622/266 570/623/266
f 558/612/265 570/623/265 571/624/265
f 571/626/276 572/627/276 560/615/276
f 572/627/275 573/628/275 561/616/275
f 573/628/274 574/633/274 562/617/274
f 562/617/273 574/633/273 575/629/273
f 575/629/272 576/630/272 564/619/272
f 576/630/271 565/620/271 553/605/271
f 1/3/282 2/2/282 566/631/282
f 2/2/281 3/5/281 567/621/281
f 3/5/280 4/7/280 568/632/280
f 4/7/279 5/8/279 569/622/279
f 5/8/278 6/10/278 570/623/278
f 6/10/277 7/12/277 571/624/277
f 571/626/288 7/13/288 8/15/288
f 8/15/287 9/16/287 573/628/287
f 573/628/286 9/16/286 10/18/286
f 574/633/285 10/18/285 11/20/285
f 575/629/284 11/20/284 12/22/284
f 576/630/283 12/22/283 1/3/283
